<svg xmlns="http://www.w3.org/2000/svg" width="22" height="22" viewBox="0 0 22 22" fill="none">
  <path fillRule="evenodd" clipRule="evenodd" d="M12.4975 12.4943H19.9971C20.395 12.4943 20.7767 12.3362 21.0581 12.0548C21.3395 11.7734 21.4976 11.3917 21.4976 10.9938C21.4976 10.5958 21.3395 10.2142 21.0581 9.93279C20.7767 9.65139 20.395 9.49331 19.9971 9.49331L12.4961 9.49472L12.4968 1.99444C12.4968 1.79744 12.4579 1.60238 12.3825 1.42039C12.3071 1.23841 12.1965 1.07306 12.0572 0.933793C11.9179 0.794526 11.7525 0.684066 11.5704 0.60872C11.3884 0.533374 11.1933 0.494619 10.9963 0.494666C10.7993 0.494712 10.6043 0.533561 10.4223 0.608992C10.2403 0.684423 10.075 0.79496 9.93569 0.934293C9.79642 1.07363 9.68596 1.23902 9.61062 1.42105C9.53527 1.60307 9.49652 1.79815 9.49656 1.99515L9.49727 9.49401L1.99769 9.49401C1.79855 9.49046 1.60069 9.5266 1.41567 9.60033C1.23064 9.67406 1.06215 9.7839 0.920027 9.92345C0.777905 10.063 0.664996 10.2294 0.58789 10.4131C0.510784 10.5967 0.471024 10.7939 0.47093 10.9931C0.470836 11.1922 0.51041 11.3894 0.587343 11.5732C0.664277 11.7569 0.777028 11.9234 0.919019 12.0631C1.06101 12.2028 1.2294 12.3128 1.41435 12.3867C1.59931 12.4606 1.79713 12.4969 1.99628 12.4936L9.49798 12.4929L9.49798 19.9938C9.49461 20.193 9.53094 20.3908 9.60484 20.5758C9.67875 20.7607 9.78875 20.9291 9.92842 21.0711C10.0681 21.2131 10.2347 21.3258 10.4184 21.4028C10.6021 21.4797 10.7993 21.5193 10.9985 21.5192C11.1976 21.5191 11.3948 21.4793 11.5785 21.4022C11.7621 21.3251 11.9285 21.2122 12.0681 21.0701C12.2076 20.928 12.3175 20.7595 12.3912 20.5745C12.4649 20.3894 12.5011 20.1916 12.4975 19.9924V12.4943Z" fill="white"/>
</svg>