<?xml version="1.0" encoding="UTF-8"?>
<svg id="Livello_1" data-name="Livello 1" xmlns="http://www.w3.org/2000/svg" version="1.1" viewBox="0 0 1340 320.7">
  <defs>
    <style>
      .cls-1 {
        fill: #f5d93f;
      }

      .cls-1, .cls-2 {
        strokeWidth: 0px;
      }

      .cls-2 {
        fill: #101820;
      }
    </style>
  </defs>
  <path class="cls-1" d="M1340,320.7v-104.4s0-171,0-171c-34.8-2.6-81.3,2.2-122.9,20.8h0c-22.8-13.8-59.3-29.8-105.4-29.8h-.4c-35.1,0-65.3,9.7-89.1,21.4l-.5,1c-28-10.5-59.9-10.4-88.7.5-9.5,3.6-18.3,8.2-26.4,13.7l-1.1.5c-9-22.3-25.3-35.6-29.4-38.7-38.3-28.6-98.4-21.7-128.8,14.8-23.9,28.8-20.7,63.9-13.7,89.3h-.3c-16.8-16.4-39.1-27.7-64-31.9-28.5-4.7-57.8.5-82.2,13.6h0c-6.8-8.8-13.3-18.2-19.8-27.8-26.4-38.7-56.4-82.5-117.1-88.3-13.1-1.2-58.4-2.8-93.5,29-15.1,13.7-25.9,31.3-32,50.4l-.8-.5c-.5,0-1-.1-1.4-.2-13.5-1.4-26.2-.3-37.5,2.1-12.7-21.3-31.9-41.2-60.4-55.6-82.8-41.7-152.8-.8-168.5,14.3-20.5-.1-25.2.6-56.1,5.6v271h1340Z"/>
  <g>
    <path class="cls-2" d="M146.5,83.2c-36.8-21.1-87-26.7-141.3-15.8-1.7.3-2.8,2-2.5,3.8.3,1.7,2,2.8,3.8,2.5,52.8-10.6,101.4-5.3,136.9,15,20.3,11.6,32.8,33.7,32.7,57.5-.2,26-15.7,49.6-42.6,64.6-19.8,11-37.9,11.3-53.8.7-24.8-16.4-37.8-55.1-36.5-76.4,5-.3,10-.4,14.7-.3-.9,17.5,9.5,43.3,27.5,55.4,5.7,3.8,13.5,7.2,23.2,7.2,8.1,0,17.5-2.3,28.1-8.6,0,0,.2,0,.2-.2,19.9-14.3,24.1-30.7,24.1-42,0-17.4-9.6-33.4-19.2-40.3-26-20.9-85-28.2-137.4-17-1.7.4-2.8,2.1-2.5,3.8.4,1.7,2.1,2.8,3.8,2.5,57.8-12.3,111.2-1,132.1,15.8,0,0,0,0,.1.1,6.4,4.6,16.6,18.2,16.6,35.1,0,14.2-7.2,26.5-21.3,36.7-16.5,9.7-31.4,10.3-44.4,1.6-17.1-11.5-25.4-35.7-24.7-50,5.4.2,10.6.7,15.4,1.3-.4,14.3,6.8,27.9,18.5,34.2,4.1,2.2,8.4,3.3,12.6,3.3s10.8-1.9,15.6-5.6c7.6-5.9,12-14.4,11.9-23.2,0-8.2-3.8-15.7-10.3-20.7-11.6-9.4-30.1-15.5-53.4-17.6-21.6-2-46.5-.4-70.1,4.5-1.7.4-2.8,2-2.5,3.8.4,1.7,2,2.8,3.8,2.5,48.5-10,97.2-5.2,118.3,11.9,5,3.8,7.8,9.5,7.8,15.7,0,6.8-3.4,13.5-9.5,18.1-8.7,6.7-17,3.9-21.2,1.7-9.2-5-15.2-16.1-15.2-27.6,6.8,1.3,12.6,3,17.3,5.2.8,5.8,6.3,12.6,11.4,7,4.9-5.3-1.3-9.8-8.2-12.6-20.3-10-59.9-11.7-100-3.6-1.7.3-2.8,2-2.5,3.8.3,1.7,2,2.8,3.8,2.5,9.7-1.9,19.4-3.3,28.9-4.1-1,23.4,12.7,63.5,39.4,81.3,8.8,5.8,18.3,8.8,28.4,8.8,10.3,0,21.1-3.1,32.1-9.2,29-16.2,45.7-41.7,45.9-70.1.2-26.2-13.6-50.3-35.9-63.1Z"/>
    <path class="cls-2" d="M940.7,211.2c11.6,10.6,28.5,16.6,45.8,16.6s6.5-.2,9.8-.6c10.2-1.4,29-6.3,40-23.6,8.1-12.8,9.9-29.8,4.8-46.6-5.5-18.2-18.3-33.5-34.4-40.8-7.7-3.5-16.4-5.3-25.3-5.3s-16.2,1.5-23.8,4.4c-15,5.7-26.5,16.1-32.4,29.3-10.8,24.2-.1,52.4,15.4,66.6ZM931.1,147.2c5.2-11.6,15.4-20.8,28.8-25.9,6.9-2.6,14.2-4,21.6-4s15.8,1.6,22.6,4.7c14.4,6.5,26,20.3,30.9,36.8,4.5,15,3,30.1-4.1,41.4-9.6,15.2-26.3,19.5-35.4,20.7-18.7,2.5-38.1-3-50.5-14.4-13.9-12.7-23.5-37.9-13.9-59.3Z"/>
    <path class="cls-2" d="M955.9,194.6c7.4,6.8,18.9,10.7,30.6,10.7s4.5-.1,6.8-.4c6.3-.8,17.9-3.7,23.9-13.3,4.6-7.2,5.4-17.7,2.3-28.1-3.6-12.1-11.9-22.1-22.1-26.7-4.8-2.2-10.3-3.3-16-3.3h0c-5.3,0-10.8,1-15.8,2.9-5.4,2.1-15.2,7-19.8,17.4-4.9,11-2.5,29.3,10.1,40.8ZM1011.8,188.1c-4.7,7.4-14.1,9.7-19.4,10.4-1,.1-2,.2-3,.3,9.2-4.7,18.5-10.4,24.5-15.5-.5,1.8-1.2,3.4-2.2,4.9ZM1014.9,173.2c-.2.2-.5.4-.7.7-3.8,5.8-21.3,16.9-37.7,24-6.4-1.4-12.2-4.1-16.3-8-.5-.5-1-1-1.5-1.5,7.9-2.3,18.7-7.5,29.9-14.6,9.6-6.1,17.2-12.1,21.3-16.7,1.4,2.6,2.6,5.3,3.5,8.3.8,2.7,1.3,5.3,1.5,7.9ZM1006.2,151.5c-2.9,3.9-11.2,10.6-21,16.8-11.2,7.1-22.2,12.5-29.5,14.3-.4,0-.7.2-1,.4-3-4.9-4.6-10.4-4.8-15.5,16.2-4.4,36.2-16.2,43.6-25.5.4.2.9.4,1.3.6,4.3,1.9,8.2,5,11.4,9ZM951.7,156.3c3.7-8.2,11.7-12.3,16.2-14,4.3-1.6,9-2.5,13.6-2.5h0c1.7,0,3.4.1,5,.4-7,7.1-22.4,16.3-36.2,20.6.3-1.6.8-3.1,1.4-4.4Z"/>
    <path class="cls-2" d="M1337,84.6c-58.8-4.1-127,15.4-161.6,68-22.1,33.6-21.3,70.4-20.7,97.4,0,1.7,1.5,3.1,3.2,3.1s0,0,0,0c1.8,0,3.2-1.5,3.1-3.3-.6-26.1-1.3-61.8,19.7-93.7,33.2-50.5,98.8-69.1,155.8-65.1,1.8.1,3.3-1.2,3.4-3,.1-1.8-1.2-3.3-3-3.4Z"/>
    <path class="cls-2" d="M1337,105.7c-72.9-5.1-122,26.2-143.5,58.8-18.4,27.9-17.7,59.7-17.2,82.9,0,1.7,1.5,3.1,3.2,3.1s0,0,0,0c1.8,0,3.2-1.5,3.1-3.3-.5-22.4-1.1-53.1,16.2-79.3,20.5-31.1,67.4-60.9,137.7-56,1.8.1,3.3-1.2,3.4-3s-1.2-3.3-3-3.4Z"/>
    <path class="cls-2" d="M1337.2,62.5c-.2,0-.5,0-.7,0-34.2-2.4-61.7,3.1-93.2,14.4-37.6,13.5-67.3,35.5-85.9,63.8-25.8,39.2-24.9,81.3-24.3,109.1,0,1.7,1.5,3.1,3.2,3.1s0,0,0,0c1.8,0,3.2-1.5,3.1-3.3-.6-27-1.5-67.9,23.3-105.4,17.9-27.1,46.5-48.3,82.8-61.3,30.7-11,57.3-16.4,90.7-14,0,0,.2,0,.3,0,1.7.2,3.4-1,3.6-2.8.2-1.7-1-3.4-2.8-3.6Z"/>
    <path class="cls-2" d="M1337,128.8c-29.6-1.9-62.8,3.5-90.8,18.6-.5.1-.9.4-1.2.7-13.3,7.4-24.8,16.9-32.6,28.9-13.5,20.5-14.1,43.8-13.5,72.1v.4c0,1.8,1.4,3.2,3.2,3.2s3.2-1.4,3.2-3.2v-.5c-.6-27.2,0-49.6,12.4-68.5,6.5-9.9,15.8-18.1,26.5-24.6,1.9,16.1,10.6,56.8,14.3,61.3.6.8,1.6,1.2,2.5,1.2s1.4-.2,2-.7c1.4-1.1,1.6-3.1.5-4.5-2.9-4.2-12.7-49.9-13.2-60.7,26.6-14,58.1-19,86.4-17.2,1.8.1,3.3-1.2,3.4-3,.1-1.8-1.2-3.3-3-3.4Z"/>
    <path class="cls-2" d="M1127.6,164.5c.2-.3.3-.7.4-1.1,3.9-10.5,9-21.1,15.9-31.6,45.8-69.5,128.2-87.8,192.7-83.5,1.7.1,3.3-1.2,3.4-3,.1-1.8-1.2-3.3-3-3.4-37.5-2.5-74.8,1.6-116.5,19.8-22.9-13.6-59.5-29.4-105.7-29.4h-.4c-30.9,0-61.4,7.4-90.5,21.7,0,0,0,0,0,0-28.1-10-60-9.6-88.8,1.3-8.8,3.3-17.1,7.6-24.8,12.6-9.5-21-25-33.6-29-36.6-39.6-29.6-101.8-22.4-133.1,15.3-21.8,26.3-21.9,57.5-16.7,82.4-16.4-13.3-36.7-22.5-58.2-26-27.8-4.6-56.7,0-81.8,12.7-6.2-8.1-12.1-16.8-18.1-25.6-26.8-39.3-57.2-83.8-119.5-89.7-13.4-1.3-59.9-2.9-95.9,29.9-14.8,13.4-25.5,30.4-31.9,48.9-11.8-1.2-24-.6-36.2,1.8-13-21.1-32.3-40.7-60.5-54.9C183.9,3.4,143.5,5.8,117.6,11.8c-30.1,7-51.2,20.7-59.7,28.4-17.4,0-35.3,1.6-53,5.2-1.7.3-2.9,2-2.5,3.8.3,1.7,2,2.9,3.8,2.5,51.9-10.3,105.1-4.7,142.4,15,23.5,12.4,40.6,33,46.9,56.5,7,26,.9,55.2-17.4,84.5-.9,1.5-.5,3.5,1,4.4.5.3,1.1.5,1.7.5,1.1,0,2.1-.5,2.7-1.5,19.2-30.6,25.5-61.3,18.4-88.8,22.2,22.8,18.7,53.1,12.3,68.7-.7,1.6.1,3.5,1.7,4.2.4.2.8.2,1.2.2,1.3,0,2.4-.7,3-2,7.8-18.9,11.8-57.6-22.2-83.2-4-9.6-9.8-18.5-16.9-26.4,4.6,1.5,9,3.4,13.4,5.6,52.4,27.3,50.9,82.2,42,104.5-.7,1.6.1,3.5,1.8,4.1.4.2.8.2,1.2.2,1.3,0,2.5-.8,3-2,9.6-24.1,11.2-83.3-45-112.6-8-4.2-16.5-7.2-25.2-8.9,0,0-.1,0-.2,0-6.1-5.3-12.9-9.9-20.2-13.8-1.6-.9-3.3-1.7-5-2.5,20.8-1.6,40.7,2.5,59.2,12.1,62.1,32.3,62.7,102.6,52.5,126.4-.7,1.6,0,3.5,1.7,4.2.4.2.8.3,1.3.3,1.2,0,2.4-.7,2.9-1.9,7.7-17.8,6.1-45.4,1.3-63.5-5.7-21.9-20.2-52.1-56.7-71.1-22.9-11.9-47.7-15.8-73.8-11.4-9.1-3.5-18.8-6.3-28.9-8.4,23.8-9.4,63.8-17.4,109.4,6.4,42.6,22.2,59,56.1,65.3,80.6,7.5,29.2,3.7,55.5-.8,66.1-.7,1.6,0,3.5,1.7,4.2.4.2.8.2,1.2.2,1.3,0,2.4-.7,2.9-2,10.5-25.2,14.3-112.2-67.5-154.8-53.9-28.1-100.5-13.8-123.5-2.8,0,0,0,0,0,0-8.7-1.4-17.7-2.2-26.8-2.6,9.9-7.1,27.7-16.9,51.2-22.4,24.9-5.8,63.7-8,107.2,13.9,28.5,14.3,46.9,34.1,58.8,54,.1.3.3.5.4.7,8.5,14.4,13.6,28.8,16.7,41.3,2.2,8.9,3.6,17.7,4.3,26.1,0,.3,0,.7,0,1.1,0,.2.1.5.2.7,1.7,22.2-.9,40.9-4.4,48.8-.7,1.6,0,3.5,1.7,4.2.4.2.8.3,1.3.3,1.2,0,2.4-.7,2.9-1.9,3.6-8.2,6.6-26.9,5.1-49.8,4-.5,8-.8,11.9-.9.7,2.2,1.5,4.4,2.4,6.6,18.8,46.2,63.2,68.1,98.5,73.2.2,0,.3,0,.5,0,1.6,0,2.9-1.1,3.2-2.7.3-1.7-1-3.4-2.7-3.6-33.5-4.8-75.6-25.5-93.5-69.3-17.4-42.8-5.7-94.4,28.6-125.5,34.1-31,78.3-29.4,91-28.2,59.3,5.6,88.8,48.8,114.8,87,21.4,31.3,41.6,60.9,77.9,72.8,32.9,10.8,63.2,2.8,87.5-3.6,2.6-.7,5.2-1.4,7.8-2.2,1.1,2.6,2,5,2.9,6.9v.2c1.1,2.3,2.1,4.6,3.2,7-3.3,1-6.7,2-10.1,2.9-24.9,6.6-59,15.5-96.1,3.4-41.2-13.5-63.9-46.6-85.8-78.7-25.3-37.1-51.5-75.4-103.6-80.4-11.1-1.1-49.8-2.5-79.3,24.3-29.6,26.9-39.8,71.6-24.7,108.5,15.5,38.1,52.6,56,82.1,60,2.6.4,5.4.6,8.4.8,0,0,.1,0,.2,0,1.7,0,3.1-1.3,3.2-3,.1-1.8-1.2-3.3-3-3.4-2.8-.2-5.4-.4-7.9-.8-27.8-3.8-62.6-20.6-77.1-56.1-14.1-34.5-4.6-76.2,23.1-101.4,27.6-25.1,63.9-23.7,74.4-22.7,49.2,4.7,74.5,41.8,99,77.6,22.5,32.9,45.7,67,89,81.2,38.9,12.7,74.1,3.5,99.8-3.3,3.8-1,7.6-2.1,11.3-3.3,2.4,4.5,5,9.1,7.9,13.5,0,0,0,0,0,0-4.9,1.6-10,3.2-15.1,4.5h-.2c-26,6.9-65.2,17.2-108.3,3-48.2-15.8-73-52-96.9-87.1-23.5-34.5-45.8-67-87.8-71-8.9-.8-39.8-2-62.7,18.8-18.8,17.1-32.9,50.8-19.3,84.3,13.8,33.8,47.3,43.5,61.1,46.1,0,0,0,0,.1,0,36.7,5.3,64.1-4.4,81.7-28.7,9,12.3,18.9,25.2,25.2,31.8.6.7,1.5,1,2.3,1s1.6-.3,2.2-.9c1.3-1.2,1.3-3.2.1-4.5-13.3-14-44.3-58.7-45.8-61-7.9-13.2-28.9-43.7-53.1-43.7s-35.6,12.5-35.6,31.1,18.1,32.5,40.3,32.5,32.2-13,37-25.7c2.6,3.7,4.7,7,5.9,9.1,0,0,0,.1.1.2.3.4,1.8,2.5,4.1,5.8,0,0,0,0,0,0v.2c-.2,0-.2,0-.2.1-11.5,18.2-34.2,28.3-56.6,25.3-5.5-.8-33.2-5.7-42.9-29.6-8.2-20.1,0-41.9,12.2-53,11.3-10.3,27.2-11.9,35.7-11.9s5,.2,5.5.2c22.5,2.1,37.1,16.6,54.7,40.9l32.8,46.5s0,0,0,0c18.6,24.5,45.7,54.5,91.1,69.4,51,16.7,96.9,4.6,124.3-2.6,15.4-4,31.7-9.9,47.3-16.9,12.9,13.2,28.6,25.2,46.6,35.4,19.2,11,41.8,20.3,65.2,26.9.3,0,.6.1.9.1,1.4,0,2.7-.9,3.1-2.3.5-1.7-.5-3.5-2.2-3.9-22.9-6.5-44.9-15.6-63.8-26.3-18.2-10.4-33.9-22.5-46.7-35.9,0,0,0,0,0,0-12.8-13.5-23.6-29.8-30.3-45.8v-.3c-7.2-16.7-26-61.1-.3-92.1,21.9-26.4,67.1-31.5,94.8-10.8,2.5,1.8,24.1,18.8,25.4,46.9.9,21.4-10.5,43.4-33.1,63.6-.2.2-.4.4-.5.6-4.1-3.8-7.7-7.5-10.8-10.9,19.8-17.3,29.9-35.4,29.2-52.5-.9-21.6-18.5-34.8-19.3-35.4-21.3-15.9-57.2-11.9-73.9,8.3-19.8,23.8-4.2,60.7,2.5,76.4,12.7,30.1,36.5,55.2,70.6,74.7,19.7,11.2,42.8,20.4,67,26.7.3,0,.5.1.8.1,1.4,0,2.7-1,3.1-2.4.4-1.7-.6-3.4-2.3-3.9-23.6-6.1-46.2-15.1-65.4-26-32.9-18.8-55.8-42.9-67.9-71.6-6.2-14.7-20.8-49-3.5-69.9,14.5-17.4,46.7-21,65.2-7.3.6.5,15.9,11.9,16.7,30.5.7,15.1-8.6,31.4-26.9,47.4-1.6-2-2.9-3.8-4-5.4-1.2-2-2.7-4.6-4.4-7.6,12.8-11.6,19.3-23.1,18.9-33.3-.5-10.7-9.5-18.1-10.6-18.9-5.3-3.9-10.9-5.8-17.3-5.8-10.1,0-19.4,3.9-24.9,10.5-7.9,9.5-6.2,27.6,4.9,53.9,0,0,0,.1,0,.2,7.3,14.9,26.8,42,47.4,55.5,18.1,11.9,33.8,18,45.3,22.4,2,.8,3.9,1.5,5.7,2.2.4.2.8.2,1.2.2,1.3,0,2.5-.8,3-2,.7-1.6-.1-3.5-1.8-4.2-1.8-.7-3.7-1.5-5.8-2.3-11.2-4.3-26.5-10.2-44.1-21.8-19.5-12.9-38.1-38.7-45.1-52.9-5.7-13.5-13.9-37.4-5.8-47.2,4.2-5,11.8-8.1,20-8.1s9.4,1.5,13.5,4.5c0,0,7.8,6.2,8.1,14.1.3,7.9-5.2,17.4-15.6,27.2-2.6-5.2-5-11-6.4-16.6,5.1-3.6,6.6-11.8-1-12.9-3.4-.5-5.2,1.1-5.9,3.6-.4.5-.6,1.2-.6,1.9.3,9.8,5.1,21.2,9.8,30,.1.4.3.9.7,1.2,2.1,3.9,4,7.2,5.4,9.5,0,0,0,.1,0,.1,7.5,11.2,29.3,35.5,57.8,46.9,6,2.4,18,6.6,18.5,6.8,0,0,0,0,0,0,4.7,10,11.2,18.8,18.5,25.6,0,0,0,0,0,0,15.4,14.1,37.5,22.1,60,22.1s8.3-.3,12.4-.8c23.9-3.2,43.3-15,54.7-33.1,11.3-17.9,13.9-41.1,7.1-63.6-7.3-24.3-23.9-43.8-45.7-53.7-19.9-9-43.6-9.5-65-1.4-13.9,5.3-25.7,13.7-34.3,24.4,1.5-7.7,1.9-14.7,1.6-20.7,0-.4,0-.8,0-1.2,8.1-6.7,17.3-12.1,27.6-15.9,24.9-9.5,52.6-8.8,76,1.8,25.5,11.6,45,34.4,53.5,62.6,8,26.5,4.8,54-8.8,75.4-13.6,21.5-37.2,36-65,39.7-2.5.3-5.1.6-7.8.8-1.8.1-3.1,1.6-3,3.4.1,1.7,1.5,3,3.2,3s.1,0,.2,0c2.8-.2,5.6-.4,8.3-.8,29.6-4,55-19.5,69.6-42.6,14.5-23,18-52.4,9.5-80.6-9-30-29.8-54.3-57-66.6-24.9-11.3-54.4-12-80.9-1.9-9.5,3.6-18.3,8.5-26.1,14.4-.9-6-2.4-11.6-4.3-16.8,7.6-5.1,15.9-9.3,24.6-12.7,30.5-11.6,64.5-10.7,93.3,2.3,31.5,14.3,55.5,42.2,65.8,76.7,9.8,32.7,5.7,67-11.3,93.9-17.1,27.2-46.7,45.4-81.1,50-5.8.8-11.7,1.2-17.5,1.2h-.3c-1.8,0-3.2,1.4-3.2,3.2s1.4,3.2,3.2,3.2h.3c6.1,0,12.3-.4,18.3-1.2,36.3-4.8,67.5-24.1,85.6-52.9,13.2-21,19.1-46.1,17.1-71.7,4.3-.3,8.7-.4,12.9-.2-11,33.1-10.4,64.6-10,84,0,1.7,1.5,3.1,3.2,3.1s0,0,0,0c1.8,0,3.2-1.5,3.1-3.3-.4-20.9-1.1-52.4,10.7-85.2ZM303.3,109.7c5.5-.6,10.9-.9,16.2-.8-.5,5.8-.6,11.7-.2,17.5-3.6.2-7.2.5-10.7.9-1.4-5.8-3.1-11.7-5.3-17.6ZM323.8,85.6c-1.6,5.6-2.8,11.3-3.6,17-6.3-.2-12.8.2-19.3,1-2.3-5.6-4.9-11.1-7.9-16.6,10.4-1.8,20.8-2.3,30.8-1.4ZM312.6,151c-.6-5.6-1.4-11.4-2.6-17.4,3.3-.4,6.6-.7,9.9-.8.7,5.8,1.8,11.7,3.3,17.4-3.5.1-7,.4-10.5.8ZM429.5,95.1c.2.2.4.4.6.5,7.7,4.7,28.6,29.8,34.9,41.9-4.8,3.3-10.1,5.5-14.8,6.4-7.1-12.6-24.5-33.2-33.8-39.8,3-4.2,7.4-7.2,13-8.9ZM412.2,118.1c0-3,.4-5.8,1.3-8.4,7.8,6,22.2,22.9,29.4,34.3-17.2-1.3-30.7-12.4-30.7-26ZM478.2,118.5c-.6,5.7-3.8,10.8-8.2,14.9-6.1-11-22.1-31-32.2-39.9,1.1,0,2.3-.1,3.5-.1,14,0,27.5,13.1,36.9,24.9,0,0,0,0,0,.1ZM710.4,162c-13.4-9.7-28.8-16.1-44.9-18.6-14.9-2.3-30-1.3-44.7,3-4.2-3.1-8.1-6.6-11.9-10.3,19.6-6.6,40.6-8.3,61-5,21.8,3.6,41.6,12.8,57.7,26.7-5.4,1.4-11.2,2.9-17.1,4.1ZM647.7,160.6c-7.3-2.4-13.9-5.5-20-9.4,12.2-2.9,24.5-3.4,36.8-1.5,13,2,25.6,6.8,36.9,13.9-16.7,2.7-34.9,3.1-53.7-3.1ZM734.9,155.9c-17.5-16.2-39.6-27-64-31-22.4-3.7-45.5-1.6-66.9,6.2-3-3.3-5.9-6.7-8.8-10.2,23.6-11.7,50.7-15.9,76.8-11.5,23.5,3.9,45.5,14.8,62,30.6,1.5,5.4,3.2,10.4,4.9,14.8-1.3.4-2.6.8-3.9,1.1ZM748.3,219.6c-26.7,7-71.5,18.8-120.7,2.7-23-7.5-53.8-21.9-88-67.1l-32.8-46.5c-18.7-25.8-34.4-41.1-59.3-43.5-.8,0-3-.3-6.2-.3-9.4,0-27,1.8-40,13.5-13.9,12.6-23.1,37.3-13.8,60.2,11.1,27.1,41.9,32.7,47.9,33.5,24,3.3,48.5-7.3,61.7-26.4,2.7,3.8,5.9,8.3,9.3,13.1-16.3,23.8-41.4,32.9-76.8,27.9-12.8-2.4-43.8-11.4-56.3-42.2-11.9-29.3-.2-61,17.6-77.2,20.9-19,49.5-18,57.8-17.2,39.1,3.7,59.5,33.6,83.2,68.3,23.4,34.3,49.9,73.1,100.2,89.5,16.5,5.4,32.4,7.4,47.3,7.4,25.5,0,47.8-5.9,64.6-10.3h.2c5.2-1.4,10.4-3,15.5-4.7.6-.2,1.1-.6,1.5-1,3.1,4.5,6.4,8.9,9.9,13.2-7.8,2.8-15.5,5.2-23,7.2ZM896.1,100.5c-1.4-31-25.2-49.7-27.9-51.8-30.3-22.6-79.6-17-103.5,11.8-28.1,33.9-8.3,80.9-.8,98.7v.3c6.6,15.4,16.7,31,28.7,44.4-4.9,2.2-9.9,4.2-14.9,6.1-11.7-13.8-21.2-29.2-27.7-44.6v-.2c-7.8-18.1-31.1-73.2,3-114.3,29.3-35.3,87.4-42,124.4-14.3,5.4,4,32.4,26.1,34,63.3.8,19.1-5.1,48.1-38,78.5-4.5-2.9-8.7-6-12.5-9.2,24.1-21.5,36.3-45.2,35.2-68.6ZM952.5,101.9c19.8-7.5,41.7-7.1,60.1,1.3,20.1,9.1,35.5,27.2,42.2,49.7,6.2,20.8,3.9,42-6.4,58.4-10.4,16.5-28.2,27.2-50.2,30.2-24.7,3.3-50.4-4.2-67.3-19.6h0c-19.7-18.1-32.5-52.4-18.8-83.1,7.5-16.7,21.8-29.8,40.4-36.8ZM904.9,193c-4.1-1.5-9.5-3.4-12.9-4.8-4.5-1.8-8.9-4-13.1-6.3,9.2-8.6,16.3-17.2,21.7-25.5-1.6,12.6.2,25.2,4.2,36.6ZM1131.4,140.4c-1-.1-2.1-.3-3.3-.4-8.3-.8-16.8-.8-25.3,0-.1-.5-.3-1-.4-1.6-1.2-4.1-2.6-8.1-4.2-12,5.6-.9,10.9-1.3,16.4-1.3h.2c8.1,0,16.2.9,24.1,2.7,0,.1-.2.3-.3.4-2.6,4-5,8-7.2,12.1ZM1088,106.5c8.8-1.9,17.7-2.9,26.5-2.9h.3c13,0,25.9,1.9,38.4,5.7-3.6,4.1-7.1,8.4-10.4,12.9-9.2-2.3-18.6-3.4-28-3.4h-.2c-6.3,0-12.5.6-19,1.7-2.3-4.9-4.8-9.5-7.6-14ZM1158,104.2c-14.1-4.6-28.6-6.9-43.2-6.9h-.3c-10.1,0-20.2,1.2-30.2,3.6-3.2-4.6-6.7-9-10.4-13.1,13.4-3.8,27-5.7,40.6-5.7.1,0,.2,0,.3,0,19,0,37.8,3.5,55.8,10.5-4.3,3.7-8.5,7.6-12.5,11.7ZM1031.8,57.3c26.7-12.3,54.4-18.6,82.5-18.6h.4c42.2,0,76.2,13.6,98.6,26.3-5.5,2.6-11,5.5-16.3,8.6-26.1-13-53.9-19.7-82.4-19.7h-.3c-22,0-44,4.3-65.4,12.6-5-3.3-10.3-6.2-15.9-8.7-.4-.2-.9-.4-1.3-.6ZM1055.4,71c19.4-7,39.2-10.6,59-10.7h.3c26.2,0,51.7,5.8,75.9,17.2-5,3.2-9.8,6.6-14.5,10.3-19.7-8.1-40.4-12.2-61.4-12.2h-.3c-15.2,0-30.6,2.4-45.6,6.9-4.2-4.2-8.7-8-13.5-11.5ZM1106.9,159.7c-.6-4.4-1.4-8.9-2.4-13.3,7.7-.7,15.4-.7,23,0,.3,0,.6,0,.8,0-2.1,4.4-3.9,8.7-5.6,13.1-5.2-.3-10.5-.2-15.8.1Z"/>
  </g>
</svg>