<svg width="59" height="92" viewBox="0 0 59 92" fill="none" xmlns="http://www.w3.org/2000/svg">
<path d="M51.5 42.5C51.5 43.02 51.4 43.56 51.19 44.1C50.49 45.9 48.62 47.74 45.46 49.28C41.45 51.25 35.81 52.5 29.5 52.5C23.19 52.5 17.55 51.25 13.54 49.28C10.38 47.74 8.51 45.9 7.81 44.1C7.6 43.56 7.5 43.02 7.5 42.5C7.5 42.36 7.51 42.21 7.52 42.07C7.75 39.91 9.7 37.6 13.54 35.72C17.55 33.76 23.19 32.5 29.5 32.5C35.81 32.5 41.45 33.76 45.46 35.72C49.3 37.6 51.25 39.91 51.48 42.07C51.49 42.21 51.5 42.36 51.5 42.5Z" stroke="white" strokeWidth="3"/>
<path d="M51.5 42.5C51.5 43.02 51.4 43.56 51.19 44.1C50.49 45.9 48.62 47.74 45.46 49.28C41.45 51.25 35.81 52.5 29.5 52.5C23.19 52.5 17.55 51.25 13.54 49.28C10.38 47.74 8.51 45.9 7.81 44.1C7.6 43.56 7.5 43.02 7.5 42.5C7.5 42.36 7.51 42.21 7.52 42.07C7.75 39.91 9.7 37.6 13.54 35.72C17.55 33.76 23.19 32.5 29.5 32.5C35.81 32.5 41.45 33.76 45.46 35.72C49.3 37.6 51.25 39.91 51.48 42.07C51.49 42.21 51.5 42.36 51.5 42.5Z" fill="white" fill-opacity="0.5" stroke="white" strokeWidth="3"/>
<path opacity="0.7" d="M51.1905 44.1L45.5205 83.79H45.4805C45.3205 85.18 44.0405 86.79 41.2205 88.16C38.3005 89.58 34.1605 90.5 29.5005 90.5C24.8405 90.5 20.7005 89.58 17.7805 88.16C14.9605 86.79 13.6805 85.18 13.5205 83.79H13.4805L7.81055 44.1C8.51055 45.9 10.3805 47.74 13.5405 49.28C17.5505 51.25 23.1905 52.5 29.5005 52.5C35.8105 52.5 41.4505 51.25 45.4605 49.28C48.6205 47.74 50.4905 45.9 51.1905 44.1Z" fill="white" stroke="white" strokeWidth="3"/>
<path d="M7.48047 41.79L7.52047 42.07L7.81047 44.1" stroke="white" strokeWidth="3"/>
<path d="M51.1895 44.1L51.4795 42.07L51.5195 41.79" stroke="white" strokeWidth="3"/>
<path d="M37.6459 42.2769C37.3485 42.2761 37.0543 42.2221 36.7811 42.1181C36.5079 42.0142 36.2612 41.8625 36.0559 41.6721C35.9506 41.5593 35.8184 41.4685 35.6688 41.4062C35.5192 41.3438 35.3559 41.3115 35.1906 41.3115C35.0252 41.3115 34.8619 41.3438 34.7123 41.4062C34.5627 41.4685 34.4305 41.5593 34.3252 41.6721C34.1199 41.8625 33.8732 42.0142 33.6 42.1181C33.3268 42.2221 33.0326 42.2761 32.7352 42.2769V41.3115C32.9003 41.3098 33.0629 41.2767 33.2123 41.2145C33.3616 41.1523 33.494 41.0624 33.6006 40.951C33.8053 40.7599 34.0518 40.6078 34.3252 40.5038C34.5986 40.3998 34.893 40.3462 35.1906 40.3462C35.4881 40.3462 35.7826 40.3998 36.0559 40.5038C36.3293 40.6078 36.5758 40.7599 36.7805 40.951C36.8871 41.0624 37.0196 41.1523 37.1689 41.2145C37.3182 41.2767 37.4809 41.3098 37.6459 41.3115C37.7096 41.3119 37.7732 41.308 37.8363 41.3L38 42.2538C37.8828 42.2693 37.7644 42.277 37.6459 42.2769ZM27.8246 49.9999C27.5272 49.9991 27.233 49.9451 26.9598 49.8411C26.6866 49.7372 26.4399 49.5855 26.2346 49.3951C26.1293 49.2823 25.9971 49.1915 25.8475 49.1292C25.6979 49.0668 25.5346 49.0345 25.3693 49.0345C25.2039 49.0345 25.0406 49.0668 24.891 49.1292C24.7414 49.1915 24.6092 49.2823 24.5039 49.3951C24.2992 49.5862 24.0526 49.7383 23.7793 49.8423C23.5059 49.9463 23.2115 49.9999 22.9139 49.9999C22.6164 49.9999 22.3219 49.9463 22.0486 49.8423C21.7752 49.7383 21.5287 49.5862 21.324 49.3951C21.2174 49.2836 21.0849 49.1938 20.9356 49.1316C20.7863 49.0693 20.6236 49.0363 20.4586 49.0345C20.3219 49.0315 20.1858 49.0531 20.0589 49.0982C19.932 49.1433 19.8168 49.2108 19.7204 49.2966L19.0143 48.5615C19.4066 48.2397 19.9236 48.0635 20.4586 48.0692C20.756 48.07 21.0502 48.124 21.3234 48.2279C21.5966 48.3319 21.8433 48.4836 22.0486 48.674C22.1539 48.7868 22.286 48.8776 22.4356 48.9399C22.5852 49.0023 22.7486 49.0346 22.9139 49.0346C23.0793 49.0346 23.2426 49.0023 23.3922 48.9399C23.5418 48.8776 23.674 48.7868 23.7793 48.674C23.984 48.4829 24.2305 48.3308 24.5039 48.2268C24.7773 48.1228 25.0717 48.0692 25.3693 48.0692C25.6668 48.0692 25.9613 48.1228 26.2346 48.2268C26.508 48.3308 26.7545 48.4829 26.9592 48.674C27.0645 48.7868 27.1967 48.8776 27.3463 48.9399C27.4959 49.0023 27.6592 49.0346 27.8246 49.0346C27.9899 49.0346 28.1533 49.0023 28.3029 48.9399C28.4525 48.8776 28.5846 48.7868 28.6899 48.674C28.8946 48.483 29.1412 48.3309 29.4145 48.227C29.6878 48.123 29.9821 48.0694 30.2796 48.0694C30.5771 48.0694 30.8715 48.123 31.1448 48.227C31.4181 48.3309 31.6646 48.483 31.8693 48.674L31.1436 49.3951C31.0384 49.2824 30.9064 49.1917 30.7569 49.1294C30.6075 49.0671 30.4443 49.0348 30.2791 49.0348C30.1139 49.0348 29.9507 49.0671 29.8013 49.1294C29.6518 49.1917 29.5197 49.2824 29.4145 49.3951C29.2093 49.5855 28.9626 49.7372 28.6894 49.8411C28.4161 49.9451 28.122 49.9991 27.8246 49.9999ZM18.0033 48.0692C17.7059 48.0683 17.4117 48.0143 17.1385 47.9104C16.8653 47.8065 16.6186 47.6547 16.4133 47.4644C16.3067 47.3529 16.1743 47.263 16.025 47.2008C15.8757 47.1386 15.713 47.1055 15.5479 47.1038C15.3917 47.1037 15.2372 47.1332 15.0948 47.1902C14.9524 47.2473 14.8255 47.3305 14.7224 47.4344L14 46.7104C14.2017 46.5284 14.4426 46.384 14.7085 46.2857C14.9744 46.1875 15.2598 46.1374 15.5479 46.1384C15.8454 46.1393 16.1395 46.1933 16.4127 46.2972C16.686 46.4011 16.9326 46.5528 17.1379 46.7432C17.2445 46.8547 17.3769 46.9446 17.5263 47.0068C17.6756 47.069 17.8382 47.1021 18.0033 47.1038V48.0692Z" fill="white"/>
<path d="M29.1645 45.2326C28.9522 45.9475 28.4426 46.5314 27.7156 46.8925C26.9886 47.2535 26.0855 47.3712 25.1483 47.2271L25.1259 46.4493C25.7407 46.5438 26.3391 46.4937 26.853 46.3048C27.3669 46.1158 27.7757 45.7955 28.0331 45.3803C28.2904 44.9651 28.3859 44.4715 28.3088 43.9557C28.2316 43.4399 27.9849 42.9225 27.5966 42.4624C27.2084 42.0022 26.6941 41.6176 26.1122 41.3524C25.5304 41.0871 24.9043 40.9518 24.3051 40.9618C23.7058 40.9719 23.1575 41.1268 22.7222 41.409C22.287 41.6912 21.9824 42.0894 21.843 42.5584C21.6708 43.1274 21.7544 43.7714 22.0798 44.382L21.2327 44.5698C20.9408 44.0174 20.7992 43.4408 20.8198 42.8884C20.8404 42.3359 21.0224 41.8237 21.3508 41.3946C21.6792 40.9655 22.1443 40.632 22.7072 40.422C23.27 40.2121 23.9143 40.1318 24.5859 40.188C25.2575 40.2441 25.937 40.435 26.5674 40.7446C27.1978 41.0543 27.7608 41.4737 28.2091 41.9677C28.6575 42.4617 28.9783 43.0159 29.1445 43.584C29.3107 44.1521 29.3175 44.7174 29.1645 45.2326Z" fill="white"/>
<path d="M23.0014 43.7112L23.0014 43.664C22.9914 43.465 23.0365 43.2666 23.1338 43.0816C23.2312 42.8966 23.3786 42.7291 23.5666 42.5898C23.8365 42.3824 24.1635 42.2227 24.5243 42.122C24.8851 42.0214 25.2708 41.9822 25.6539 42.0074C25.9794 42.0077 26.3007 42.0638 26.5935 42.1715C27.1865 42.4068 27.3965 42.7112 27.3965 43.3365C27.3965 44.2104 26.7333 44.6677 26.078 44.6677C25.7338 44.6548 25.4082 44.5454 25.1645 44.3609C24.9208 44.1764 24.7765 43.9299 24.7594 43.6693L25.6385 43.6693C25.6538 43.7535 25.705 43.8315 25.7844 43.8916C25.8637 43.9517 25.9668 43.9905 26.078 44.0021C26.2604 44.0021 26.5175 43.7958 26.5175 43.3365C26.5175 42.8926 26.4138 42.8517 26.1861 42.7612C26.0093 42.7003 25.8169 42.6695 25.6226 42.671C25.3698 42.6515 25.1144 42.6733 24.8736 42.7348C24.6328 42.7963 24.4123 42.8962 24.2267 43.0277C24.1078 43.1082 24.0148 43.2082 23.9548 43.3201C23.8947 43.432 23.8693 43.5528 23.8804 43.6733C23.845 44.0794 23.958 44.485 24.207 44.8457C24.4085 45.0249 24.6733 45.1568 24.9704 45.2261C25.3071 45.3051 25.6588 45.3413 26.0112 45.3332C26.5789 45.3318 27.1413 45.2502 27.6695 45.0926L28 45.7096C27.3692 45.8984 26.6974 45.9965 26.0191 45.9988C25.5697 46.0084 25.1214 45.9611 24.6926 45.8587C24.2319 45.7501 23.8232 45.5419 23.5169 45.2597C23.0396 44.8008 23.0014 43.9688 23.0014 43.7112Z" fill="white"/>
<path d="M38.0022 45.5669L38.0022 45.496C37.9862 45.1975 38.0584 44.8999 38.2141 44.6224C38.3699 44.3449 38.6057 44.0936 38.9065 43.8847C39.3384 43.5736 39.8616 43.334 40.4388 43.183C41.0161 43.032 41.6332 42.9733 42.2462 43.0111C42.7671 43.0116 43.2811 43.0957 43.7497 43.2572C44.6983 43.6101 45.0345 44.0669 45.0345 45.0048C45.0345 46.3156 43.9733 47.0015 42.9248 47.0015C42.3741 46.9821 41.8531 46.8182 41.4632 46.5414C41.0734 46.2646 40.8423 45.8949 40.8151 45.504L42.2216 45.504C42.2461 45.6302 42.3281 45.7473 42.455 45.8374C42.582 45.9275 42.7469 45.9857 42.9248 46.0031C43.2166 46.0031 43.628 45.6937 43.628 45.0048C43.628 44.3389 43.462 44.2775 43.0978 44.1417C42.8148 44.0504 42.5071 44.0042 42.1962 44.0065C41.7917 43.9773 41.3831 44.0099 40.9978 44.1022C40.6126 44.1945 40.2596 44.3443 39.9628 44.5416C39.7725 44.6623 39.6237 44.8123 39.5276 44.9802C39.4316 45.148 39.3909 45.3292 39.4086 45.51C39.3521 46.1191 39.5328 46.7275 39.9311 47.2685C40.2536 47.5373 40.6773 47.7352 41.1526 47.8391C41.6914 47.9577 42.2541 48.012 42.8179 47.9998C43.7262 47.9977 44.6261 47.8753 45.4712 47.6389L46 48.5644C44.9907 48.8476 43.9158 48.9947 42.8305 48.9982C42.1115 49.0127 41.3942 48.9416 40.7082 48.788C39.9711 48.6252 39.3172 48.3129 38.8271 47.8895C38.0634 47.2011 38.0022 45.9532 38.0022 45.5669Z" fill="white"/>
<mask id="mask0_906_1108" style="mask-type:alpha" maskUnits="userSpaceOnUse" x="30" y="42" width="7" height="6">
<rect x="31.0352" y="42" width="6" height="4" transform="rotate(15 31.0352 42)" fill="#D9D9D9"/>
</mask>
<g mask="url(#mask0_906_1108)">
<path d="M55.2201 41.3696C54.9233 41.3503 54.6331 41.2781 54.3668 41.1573C54.1006 41.0366 53.8639 40.8698 53.6708 40.667C53.5728 40.5479 53.4465 40.449 53.3011 40.3775C53.1556 40.3059 52.9946 40.2635 52.8296 40.2532C52.6646 40.2429 52.4995 40.265 52.3464 40.3179C52.1932 40.3708 52.0556 40.4532 51.9435 40.5593C51.7267 40.7365 51.4711 40.8726 51.1919 40.9593C50.9128 41.046 50.6158 41.0816 50.3189 41.0639L50.379 40.1004C50.5438 40.109 50.7083 40.0861 50.8612 40.0333C51.0141 39.9805 51.1518 39.899 51.2652 39.7944C51.4814 39.6165 51.7369 39.48 52.0162 39.3932C52.2955 39.3064 52.5927 39.2713 52.8897 39.2898C53.1867 39.3083 53.4772 39.3802 53.7436 39.501C54.0099 39.6217 54.2465 39.789 54.4389 39.9924C54.5384 40.1103 54.665 40.2082 54.8101 40.2796C54.9553 40.351 55.1156 40.3941 55.2802 40.4061C55.3437 40.4104 55.4075 40.4105 55.4709 40.4064L55.5749 41.3685C55.457 41.3767 55.3384 41.3771 55.2201 41.3696ZM44.937 48.4662C44.6402 48.4469 44.35 48.3746 44.0838 48.2539C43.8176 48.1332 43.5808 47.9664 43.3878 47.7636C43.2897 47.6445 43.1634 47.5456 43.018 47.4741C42.8726 47.4025 42.7116 47.3601 42.5466 47.3498C42.3815 47.3395 42.2165 47.3616 42.0633 47.4145C41.9101 47.4674 41.7725 47.5498 41.6604 47.6559C41.4442 47.8338 41.1887 47.9703 40.9094 48.0571C40.6301 48.1438 40.3329 48.179 40.0359 48.1605C39.7389 48.142 39.4484 48.0701 39.182 47.9493C38.9157 47.8285 38.6791 47.6613 38.4867 47.4579C38.3872 47.34 38.2606 47.2421 38.1155 47.1707C37.9703 47.0993 37.81 47.0561 37.6454 47.0442C37.5091 47.0326 37.372 47.0457 37.2425 47.0828C37.113 47.1199 36.9939 47.1801 36.8923 47.2598L36.2334 46.4821C36.645 46.1854 37.1719 46.0416 37.7055 46.0807C38.0023 46.1 38.2925 46.1722 38.5587 46.293C38.825 46.4137 39.0617 46.5805 39.2547 46.7833C39.3528 46.9024 39.4791 47.0013 39.6245 47.0728C39.7699 47.1443 39.9309 47.1868 40.096 47.1971C40.261 47.2073 40.426 47.1853 40.5792 47.1323C40.7324 47.0794 40.87 46.997 40.9821 46.891C41.1983 46.7131 41.4539 46.5766 41.7332 46.4898C42.0125 46.403 42.3097 46.3679 42.6066 46.3864C42.9036 46.4049 43.1942 46.4768 43.4605 46.5975C43.7269 46.7183 43.9635 46.8856 44.1559 47.089C44.254 47.2081 44.3802 47.307 44.5256 47.3785C44.6711 47.45 44.8321 47.4925 44.9971 47.5028C45.1622 47.5131 45.3272 47.491 45.4804 47.4381C45.6336 47.3851 45.7711 47.3027 45.8832 47.1967C46.0994 47.0189 46.3549 46.8824 46.6342 46.7957C46.9134 46.709 47.2106 46.6738 47.5075 46.6923C47.8044 46.7108 48.0949 46.7827 48.3612 46.9034C48.6275 47.0242 48.8641 47.1913 49.0565 47.3946L48.2873 48.0692C48.1893 47.9502 48.0632 47.8514 47.9179 47.7799C47.7726 47.7085 47.6117 47.6661 47.4468 47.6558C47.282 47.6455 47.1171 47.6676 46.964 47.7205C46.811 47.7733 46.6736 47.8556 46.5615 47.9616C46.3448 48.1388 46.0892 48.2749 45.81 48.3616C45.5308 48.4483 45.2339 48.4839 44.937 48.4662ZM35.255 45.9278C34.9582 45.9084 34.668 45.8362 34.4017 45.7155C34.1355 45.5947 33.8988 45.428 33.7057 45.2252C33.6063 45.1073 33.4797 45.0093 33.3345 44.938C33.1894 44.8666 33.0291 44.8234 32.8645 44.8114C32.7085 44.8017 32.5525 44.8215 32.4069 44.8695C32.2612 44.9176 32.1293 44.9927 32.02 45.09L31.344 44.3224C31.5567 44.1533 31.8061 44.0242 32.0776 43.9427C32.3491 43.8612 32.6371 43.829 32.9246 43.8479C33.2214 43.8673 33.5116 43.9395 33.7778 44.0603C34.044 44.181 34.2808 44.3478 34.4738 44.5506C34.5733 44.6684 34.6999 44.7664 34.845 44.8378C34.9901 44.9092 35.1505 44.9523 35.3151 44.9643L35.255 45.9278Z" fill="white"/>
</g>
<mask id="mask1_906_1108" style="mask-type:alpha" maskUnits="userSpaceOnUse" x="32" y="46" width="7" height="8">
<rect x="35.5625" y="46.7321" width="6" height="4" transform="rotate(60 35.5625 46.7321)" fill="#D9D9D9"/>
</mask>
<g mask="url(#mask1_906_1108)">
<path d="M53.1094 63.3872C52.9132 63.1637 52.7591 62.9074 52.6562 62.6338C52.5533 62.3601 52.5039 62.0748 52.5108 61.7949C52.5257 61.6413 52.5063 61.4821 52.454 61.3287C52.4018 61.1753 52.3179 61.0315 52.2085 60.9075C52.0991 60.7835 51.9668 60.6824 51.8211 60.6115C51.6753 60.5406 51.5198 60.5016 51.3655 60.4973C51.0869 60.4694 50.81 60.3848 50.5513 60.2487C50.2925 60.1127 50.0574 59.9279 49.86 59.7054L50.5838 59.0666C50.6942 59.1892 50.8267 59.2893 50.9721 59.3601C51.1176 59.4308 51.2726 59.4707 51.4267 59.4768C51.7054 59.5039 51.9826 59.5881 52.2415 59.7242C52.5003 59.8604 52.7354 60.0456 52.9323 60.2687C53.1292 60.4918 53.2838 60.7481 53.3867 61.0218C53.4896 61.2956 53.5387 61.5811 53.5309 61.861C53.5179 62.0147 53.5381 62.1735 53.5903 62.3266C53.6425 62.4797 53.7253 62.6235 53.8332 62.7484C53.8751 62.7964 53.9202 62.8415 53.9679 62.8835L53.3611 63.6374C53.2719 63.5597 53.1878 63.4761 53.1094 63.3872ZM40.8202 61.1341C40.624 60.9105 40.4698 60.6542 40.367 60.3806C40.2641 60.107 40.2146 59.8216 40.2215 59.5418C40.2364 59.3882 40.217 59.229 40.1648 59.0756C40.1125 58.9221 40.0287 58.7783 39.9193 58.6543C39.8098 58.5303 39.6775 58.4293 39.5318 58.3584C39.3861 58.2875 39.2305 58.2484 39.0763 58.2441C38.7976 58.2171 38.5203 58.1329 38.2615 57.9968C38.0027 57.8606 37.7676 57.6753 37.5707 57.4523C37.3738 57.2292 37.2192 56.9729 37.1163 56.6992C37.0133 56.4254 36.9643 56.1399 36.9721 55.86C36.9851 55.7063 36.9648 55.5475 36.9127 55.3944C36.8605 55.2413 36.7777 55.0974 36.6698 54.9726C36.5816 54.868 36.4754 54.7804 36.3576 54.715C36.2398 54.6497 36.1129 54.608 35.9848 54.5925L36.0687 53.5767C36.5696 53.6579 37.0439 53.9289 37.3936 54.3338C37.5897 54.5573 37.7439 54.8136 37.8468 55.0872C37.9496 55.3608 37.9991 55.6462 37.9922 55.9261C37.9773 56.0796 37.9967 56.2388 38.049 56.3922C38.1012 56.5457 38.185 56.6895 38.2945 56.8135C38.4039 56.9375 38.5362 57.0385 38.6819 57.1094C38.8277 57.1804 38.9832 57.2194 39.1375 57.2237C39.4162 57.2507 39.6934 57.3349 39.9522 57.471C40.2111 57.6072 40.4461 57.7925 40.643 58.0156C40.8399 58.2387 40.9945 58.4949 41.0975 58.7687C41.2004 59.0424 41.2494 59.3279 41.2417 59.6078C41.2268 59.7614 41.2462 59.9206 41.2984 60.074C41.3507 60.2275 41.4345 60.3713 41.5439 60.4953C41.6533 60.6193 41.7856 60.7203 41.9314 60.7912C42.0771 60.8621 42.2327 60.9012 42.3869 60.9055C42.6655 60.9326 42.9427 61.0168 43.2015 61.1529C43.4603 61.289 43.6952 61.4743 43.8921 61.6973C44.0889 61.9204 44.2435 62.1765 44.3465 62.4502C44.4494 62.7239 44.4985 63.0094 44.4908 63.2892L43.4699 63.2223C43.4848 63.0689 43.4654 62.9098 43.4132 62.7566C43.361 62.6033 43.2772 62.4596 43.1679 62.3357C43.0586 62.2118 42.9264 62.1109 42.7808 62.04C42.6352 61.9692 42.4798 61.9302 42.3257 61.9259C42.0471 61.898 41.7702 61.8134 41.5114 61.6774C41.2527 61.5413 41.0176 61.3565 40.8202 61.1341ZM35.7688 52.4929C35.5727 52.2693 35.4185 52.013 35.3156 51.7394C35.2128 51.4658 35.1633 51.1805 35.1702 50.9006C35.1832 50.7469 35.163 50.5881 35.1108 50.435C35.0587 50.2819 34.9758 50.138 34.8679 50.0132C34.7645 49.896 34.6402 49.7996 34.5032 49.7306C34.3663 49.6616 34.2199 49.6215 34.0737 49.613L34.1386 48.5923C34.4085 48.623 34.6762 48.7081 34.9258 48.8424C35.1754 48.9768 35.4018 49.1576 35.5917 49.3744C35.7879 49.5979 35.942 49.8542 36.0449 50.1278C36.1478 50.4014 36.1972 50.6868 36.1903 50.9667C36.1773 51.1203 36.1976 51.2791 36.2497 51.4322C36.3019 51.5853 36.3847 51.7292 36.4926 51.8541L35.7688 52.4929Z" fill="white"/>
</g>
<path d="M20.72 53.0808C20.0111 53.2539 7.72376 14.2677 5.64367 7.6504C5.4758 7.11638 5.79138 6.59272 6.33471 6.46002L7.60422 6.14996C8.14755 6.01726 8.7081 6.32694 8.85566 6.86592C10.6842 13.5447 21.4288 52.9077 20.72 53.0808Z" fill="white"/>
<path d="M22.0851 53.2267C21.3569 53.3074 15.2015 13.1864 14.1585 6.35346C14.0741 5.80026 14.4648 5.31935 15.0207 5.25774L16.3341 5.1122C16.8901 5.05059 17.3958 5.43217 17.4592 5.98769C18.2429 12.8494 22.8134 53.146 22.0851 53.2267Z" fill="white"/>
<path d="M32.8418 18.5L32.6552 24.5733" stroke="white" strokeLinecap="round"/>
<path d="M42.4336 20.0671L41.0688 25.9881" stroke="white" strokeLinecap="round"/>
<path d="M51.8906 24L49.0004 29.3448" stroke="white" strokeLinecap="round"/>
</svg>
