<svg width="59" height="92" viewBox="0 0 59 92" fill="none" xmlns="http://www.w3.org/2000/svg">
<path d="M51.5 42.5C51.5 43.02 51.4 43.56 51.19 44.1C50.49 45.9 48.62 47.74 45.46 49.28C41.45 51.25 35.81 52.5 29.5 52.5C23.19 52.5 17.55 51.25 13.54 49.28C10.38 47.74 8.51 45.9 7.81 44.1C7.6 43.56 7.5 43.02 7.5 42.5C7.5 42.36 7.51 42.21 7.52 42.07C7.75 39.91 9.7 37.6 13.54 35.72C17.55 33.76 23.19 32.5 29.5 32.5C35.81 32.5 41.45 33.76 45.46 35.72C49.3 37.6 51.25 39.91 51.48 42.07C51.49 42.21 51.5 42.36 51.5 42.5Z" stroke="white" strokeWidth="3"/>
<path d="M51.5 42.5C51.5 43.02 51.4 43.56 51.19 44.1C50.49 45.9 48.62 47.74 45.46 49.28C41.45 51.25 35.81 52.5 29.5 52.5C23.19 52.5 17.55 51.25 13.54 49.28C10.38 47.74 8.51 45.9 7.81 44.1C7.6 43.56 7.5 43.02 7.5 42.5C7.5 42.36 7.51 42.21 7.52 42.07C7.75 39.91 9.7 37.6 13.54 35.72C17.55 33.76 23.19 32.5 29.5 32.5C35.81 32.5 41.45 33.76 45.46 35.72C49.3 37.6 51.25 39.91 51.48 42.07C51.49 42.21 51.5 42.36 51.5 42.5Z" fill="white" fill-opacity="0.5" stroke="white" strokeWidth="3"/>
<path opacity="0.7" d="M51.1896 44.1L45.5196 83.79H45.4796C45.3196 85.18 44.0396 86.79 41.2196 88.16C38.2996 89.58 34.1596 90.5 29.4996 90.5C24.8396 90.5 20.6996 89.58 17.7796 88.16C14.9596 86.79 13.6796 85.18 13.5196 83.79H13.4796L7.80957 44.1C8.50957 45.9 10.3796 47.74 13.5396 49.28C17.5496 51.25 23.1896 52.5 29.4996 52.5C35.8096 52.5 41.4496 51.25 45.4596 49.28C48.6196 47.74 50.4896 45.9 51.1896 44.1Z" fill="white" stroke="white" strokeWidth="3"/>
<path d="M7.48047 41.79L7.52047 42.07L7.81047 44.1" stroke="white" strokeWidth="3"/>
<path d="M51.1904 44.1L51.4804 42.07L51.5204 41.79" stroke="white" strokeWidth="3"/>
<path d="M53.0001 42C53.0001 45.9488 49.2649 49.4522 43.5001 51.639C43.5001 51.639 40.5011 53 36.5011 53C32.5011 53 29.001 49.5 29.001 43C29.001 36.4999 17 28.9999 21.0001 25.9999C25.0002 25.5 29.001 28.0457 32.5002 29C38.0002 30.5 39.5898 30.8776 43.5001 32.3609C49.2649 34.5478 53.0001 38.0511 53.0001 42Z" fill="white"/>
<path d="M19.074 43.5222L19.074 43.4513C19.0604 43.153 19.1216 42.8557 19.2535 42.5784C19.3855 42.3011 19.5853 42.05 19.8401 41.8412C20.206 41.5304 20.6492 41.2909 21.1383 41.1401C21.6274 40.9892 22.1502 40.9305 22.6694 40.9683C23.1107 40.9687 23.5462 41.0528 23.9432 41.2142C24.7469 41.5668 25.0316 42.0232 25.0316 42.9605C25.0316 44.2704 24.1326 44.9557 23.2443 44.9557C22.7778 44.9364 22.3365 44.7725 22.0062 44.496C21.6758 44.2194 21.4801 43.8499 21.457 43.4593L22.6486 43.4593C22.6694 43.5855 22.7388 43.7025 22.8464 43.7925C22.9539 43.8826 23.0937 43.9407 23.2443 43.9581C23.4916 43.9581 23.8401 43.6489 23.8401 42.9605C23.8401 42.2951 23.6995 42.2337 23.3909 42.0981C23.1512 42.0068 22.8905 41.9606 22.6271 41.9629C22.2844 41.9337 21.9382 41.9663 21.6118 42.0586C21.2855 42.1508 20.9865 42.3005 20.735 42.4976C20.5738 42.6183 20.4477 42.7682 20.3663 42.9359C20.285 43.1036 20.2505 43.2847 20.2655 43.4653C20.2176 44.074 20.3708 44.682 20.7082 45.2226C20.9813 45.4912 21.3403 45.6889 21.743 45.7927C22.1994 45.9113 22.6762 45.9655 23.1538 45.9533C23.9233 45.9512 24.6856 45.8289 25.4016 45.5927L25.8496 46.5175C24.9945 46.8005 24.0839 46.9475 23.1645 46.9509C22.5554 46.9655 21.9476 46.8945 21.3665 46.741C20.742 46.5783 20.188 46.2662 19.7728 45.8431C19.1258 45.1552 19.074 43.9082 19.074 43.5222Z" fill="white"/>
<path d="M37.6459 42.277C37.3485 42.2762 37.0543 42.2222 36.7811 42.1183C36.5079 42.0143 36.2612 41.8626 36.0559 41.6722C35.9506 41.5594 35.8184 41.4686 35.6688 41.4063C35.5192 41.344 35.3559 41.3116 35.1906 41.3116C35.0252 41.3116 34.8619 41.344 34.7123 41.4063C34.5627 41.4686 34.4305 41.5594 34.3252 41.6722C34.1199 41.8626 33.8732 42.0143 33.6 42.1183C33.3268 42.2222 33.0326 42.2762 32.7352 42.277V41.3117C32.9003 41.31 33.0629 41.2769 33.2123 41.2147C33.3616 41.1524 33.494 41.0626 33.6006 40.9511C33.8053 40.7601 34.0518 40.6079 34.3252 40.5039C34.5986 40.3999 34.893 40.3463 35.1906 40.3463C35.4881 40.3463 35.7826 40.3999 36.0559 40.5039C36.3293 40.6079 36.5758 40.7601 36.7805 40.9511C36.8871 41.0626 37.0196 41.1524 37.1689 41.2147C37.3182 41.2769 37.4809 41.31 37.6459 41.3117C37.7096 41.312 37.7732 41.3081 37.8363 41.3001L38 42.2539C37.8828 42.2694 37.7644 42.2771 37.6459 42.277ZM27.8246 50C27.5272 49.9992 27.233 49.9452 26.9598 49.8413C26.6866 49.7373 26.4399 49.5856 26.2346 49.3952C26.1293 49.2824 25.9971 49.1916 25.8475 49.1293C25.6979 49.0669 25.5346 49.0346 25.3693 49.0346C25.2039 49.0346 25.0406 49.0669 24.891 49.1293C24.7414 49.1916 24.6092 49.2824 24.5039 49.3952C24.2992 49.5863 24.0526 49.7384 23.7793 49.8424C23.5059 49.9464 23.2115 50 22.9139 50C22.6164 50 22.3219 49.9464 22.0486 49.8424C21.7752 49.7384 21.5287 49.5863 21.324 49.3952C21.2174 49.2838 21.0849 49.1939 20.9356 49.1317C20.7863 49.0695 20.6236 49.0364 20.4586 49.0347C20.3219 49.0316 20.1858 49.0532 20.0589 49.0983C19.932 49.1434 19.8168 49.2109 19.7204 49.2968L19.0143 48.5616C19.4066 48.2398 19.9236 48.0636 20.4586 48.0693C20.756 48.0701 21.0502 48.1241 21.3234 48.2281C21.5966 48.332 21.8433 48.4837 22.0486 48.6741C22.1539 48.7869 22.286 48.8777 22.4356 48.94C22.5852 49.0024 22.7486 49.0347 22.9139 49.0347C23.0793 49.0347 23.2426 49.0024 23.3922 48.94C23.5418 48.8777 23.674 48.7869 23.7793 48.6741C23.984 48.483 24.2305 48.3309 24.5039 48.2269C24.7773 48.1229 25.0717 48.0693 25.3693 48.0693C25.6668 48.0693 25.9613 48.1229 26.2346 48.2269C26.508 48.3309 26.7545 48.483 26.9592 48.6741C27.0645 48.7869 27.1967 48.8777 27.3463 48.94C27.4959 49.0024 27.6592 49.0347 27.8246 49.0347C27.9899 49.0347 28.1533 49.0024 28.3029 48.94C28.4525 48.8777 28.5846 48.7869 28.6899 48.6741C28.8946 48.4831 29.1412 48.331 29.4145 48.2271C29.6878 48.1232 29.9821 48.0696 30.2796 48.0696C30.5771 48.0696 30.8715 48.1232 31.1448 48.2271C31.4181 48.331 31.6646 48.4831 31.8693 48.6741L31.1436 49.3952C31.0384 49.2825 30.9064 49.1918 30.7569 49.1295C30.6075 49.0672 30.4443 49.0349 30.2791 49.0349C30.1139 49.0349 29.9507 49.0672 29.8013 49.1295C29.6518 49.1918 29.5197 49.2825 29.4145 49.3952C29.2093 49.5856 28.9626 49.7373 28.6894 49.8413C28.4161 49.9452 28.122 49.9992 27.8246 50ZM18.0033 48.0693C17.7059 48.0684 17.4117 48.0144 17.1385 47.9105C16.8653 47.8066 16.6186 47.6549 16.4133 47.4645C16.3067 47.353 16.1743 47.2631 16.025 47.2009C15.8757 47.1387 15.713 47.1056 15.5479 47.1039C15.3917 47.1039 15.2372 47.1333 15.0948 47.1904C14.9524 47.2474 14.8255 47.3306 14.7224 47.4346L14 46.7105C14.2017 46.5285 14.4426 46.3841 14.7085 46.2858C14.9744 46.1876 15.2598 46.1375 15.5479 46.1385C15.8454 46.1394 16.1395 46.1934 16.4127 46.2973C16.686 46.4013 16.9326 46.553 17.1379 46.7433C17.2445 46.8548 17.3769 46.9447 17.5263 47.0069C17.6756 47.0691 17.8382 47.1022 18.0033 47.1039V48.0693Z" fill="white"/>
<path d="M32.2881 38.1243C33.3399 38.3733 34.2682 38.9246 34.9272 39.6913C35.5862 40.458 35.9385 41.3967 35.9287 42.3598L34.8367 42.3508C34.8431 41.7189 34.6491 41.0981 34.2766 40.5589C33.9042 40.0196 33.3683 39.5836 32.7298 39.3003C32.0913 39.017 31.3758 38.8978 30.6645 38.9561C29.9532 39.0145 29.2748 39.2482 28.7061 39.6306C28.1374 40.013 27.7014 40.5289 27.4475 41.1195C27.1936 41.7102 27.132 42.352 27.2697 42.972C27.4075 43.5921 27.739 44.1656 28.2267 44.6273C28.7144 45.089 29.3387 45.4205 30.0286 45.5841C30.8663 45.7858 31.757 45.726 32.5507 45.4149L32.9902 46.2986C32.2716 46.5775 31.488 46.7 30.7049 46.6558C29.9218 46.6117 29.1621 46.4022 28.4893 46.0448C27.8166 45.6875 27.2505 45.1927 26.8384 44.602C26.4263 44.0112 26.1802 43.3418 26.1207 42.6496C26.0613 41.9574 26.1902 41.2627 26.4967 40.6237C26.8032 39.9847 27.2783 39.4199 27.8823 38.9767C28.4863 38.5336 29.2015 38.2249 29.968 38.0766C30.7346 37.9283 31.5302 37.9446 32.2881 38.1243Z" fill="white"/>
<g clip-path="url(#clip0_906_1055)">
<path d="M22.75 13.2891C22.75 15.3995 21.0323 17.1172 18.9219 17.1172" stroke="white" stroke-miterlimit="10" strokeLinecap="round" strokeLinejoin="round"/>
<path d="M15.0937 24.5547C15.0937 26.0646 13.8693 27.4531 12.3594 27.4531C10.8494 27.4531 9.625 26.0646 9.625 24.5547C9.625 23.0448 12.3594 18.9219 12.3594 18.9219C12.3594 18.9219 15.0937 23.0448 15.0937 24.5547Z" stroke="white" stroke-miterlimit="10" strokeLinecap="round" strokeLinejoin="round"/>
<path d="M9.62498 16.1875C9.62498 17.9998 8.15608 19.4688 6.34374 19.4688C4.5314 19.4688 3.0625 17.9998 3.0625 16.1875C3.0625 14.3752 6.34374 9.62503 6.34374 9.62503C6.34374 9.62503 9.62498 14.3752 9.62498 16.1875Z" stroke="white" stroke-miterlimit="10" strokeLinecap="round" strokeLinejoin="round"/>
<path d="M12.9062 12.7891C12.9321 12.7891 12.9531 12.768 12.9531 12.7422C12.9531 12.7163 12.9321 12.6953 12.9062 12.6953C12.8804 12.6953 12.8594 12.7163 12.8594 12.7422C12.8594 12.768 12.8804 12.7891 12.9062 12.7891Z" fill="white" stroke="white"/>
<path d="M13.5465 10.6501C15.0958 6.53864 18.9222 0.546932 18.9222 0.546932C18.9222 0.546932 24.9378 9.96683 24.9378 13.2891C24.9378 16.6113 22.2445 19.3047 18.9222 19.3047C16.1646 19.3047 13.8403 17.449 13.1299 14.9184" stroke="white" stroke-miterlimit="10" strokeLinecap="round" strokeLinejoin="round"/>
</g>
<defs>
<clipPath id="clip0_906_1055">
<rect width="28" height="28" fill="white"/>
</clipPath>
</defs>
</svg>
