<svg xmlns="http://www.w3.org/2000/svg" height="5" fill="none" viewBox="0 0 196 5"><path fill="#fff" d="M65.455 5c-2.045 0-3.09-1.09-3.954-1.954-.864-.864-1.364-1.364-2.5-1.364-1.137 0-1.637.5-2.5 1.364C55.637 3.909 54.59 5 52.546 5s-3.09-1.09-3.955-1.954c-.863-.864-1.363-1.364-2.5-1.364-1.136 0-1.636.5-2.5 1.364C42.728 3.909 41.682 5 39.637 5c-2.046 0-3.091-1.09-3.955-1.954-.863-.864-1.363-1.364-2.5-1.364-1.136 0-1.636.5-2.5 1.364C29.82 3.909 28.773 5 26.728 5c-2.046 0-3.091-1.09-3.955-1.954-.863-.864-1.363-1.364-2.5-1.364-1.136 0-1.636.5-2.5 1.364C16.91 3.909 15.864 5 13.82 5c-2.046 0-3.091-1.09-3.955-1.954-.863-.864-1.363-1.364-2.5-1.364-1.136 0-1.636.5-2.5 1.364C4.001 3.909 2.955 5 .91 5c-.546 0-.955-.364-.955-.864s.41-.863.955-.863c1.136 0 1.636-.5 2.5-1.364.863-.863 1.909-1.954 3.954-1.954 2.046 0 3.091 1.09 3.955 1.954.863.864 1.363 1.364 2.5 1.364 1.136 0 1.636-.5 2.5-1.364.863-.863 1.909-1.954 3.954-1.954 2.046 0 3.091 1.09 3.955 1.954.863.864 1.363 1.364 2.5 1.364 1.136 0 1.636-.5 2.5-1.364.863-.863 1.909-1.954 3.954-1.954 2.046 0 3.091 1.09 3.955 1.954.864.864 1.364 1.364 2.5 1.364s1.636-.5 2.5-1.364C43 1.046 44.046-.045 46.09-.045c2.046 0 3.091 1.09 3.955 1.954.864.864 1.364 1.364 2.5 1.364s1.636-.5 2.5-1.364c.864-.863 1.91-1.954 3.955-1.954s3.09 1.09 3.954 1.954c.864.864 1.364 1.364 2.5 1.364.546 0 .955.363.955.863S66 5 65.455 5Z"/><path fill="#fff" d="M130.001 5c-2.045 0-3.091-1.09-3.955-1.954-.863-.864-1.363-1.364-2.5-1.364-1.136 0-1.636.5-2.5 1.364-.863.863-1.909 1.954-3.954 1.954-2.046 0-3.091-1.09-3.955-1.954-.863-.864-1.363-1.364-2.5-1.364-1.136 0-1.636.5-2.5 1.364-.863.863-1.909 1.954-3.954 1.954-2.046 0-3.091-1.09-3.955-1.954-.863-.864-1.363-1.364-2.5-1.364-1.136 0-1.636.5-2.5 1.364C94.365 3.909 93.32 5 91.274 5c-2.046 0-3.091-1.09-3.955-1.954-.864-.864-1.364-1.364-2.5-1.364s-1.636.5-2.5 1.364C81.455 3.909 80.41 5 78.365 5c-2.046 0-3.091-1.09-3.955-1.954-.864-.864-1.364-1.364-2.5-1.364s-1.636.5-2.5 1.364C68.546 3.909 67.501 5 65.456 5c-.546 0-.955-.364-.955-.864s.41-.863.954-.863c1.137 0 1.637-.5 2.5-1.364.864-.863 1.91-1.954 3.955-1.954 2.046 0 3.091 1.09 3.955 1.954.863.864 1.363 1.364 2.5 1.364 1.136 0 1.636-.5 2.5-1.364.863-.863 1.909-1.954 3.954-1.954 2.046 0 3.091 1.09 3.955 1.954.863.864 1.363 1.364 2.5 1.364 1.136 0 1.636-.5 2.5-1.364.863-.863 1.909-1.954 3.954-1.954 2.046 0 3.091 1.09 3.955 1.954.863.864 1.363 1.364 2.5 1.364 1.136 0 1.636-.5 2.5-1.364.863-.863 1.909-1.954 3.954-1.954 2.046 0 3.091 1.09 3.955 1.954.864.864 1.364 1.364 2.5 1.364s1.636-.5 2.5-1.364c.864-.863 1.909-1.954 3.954-1.954 2.046 0 3.091 1.09 3.955 1.954.864.864 1.364 1.364 2.5 1.364.545 0 .955.363.955.863s-.41.864-.955.864Z"/><path fill="#fff" d="M194.637 5c-2.046 0-3.091-1.09-3.955-1.954-.863-.864-1.363-1.364-2.5-1.364-1.136 0-1.636.5-2.5 1.364-.863.863-1.909 1.954-3.954 1.954-2.046 0-3.091-1.09-3.955-1.954-.864-.864-1.364-1.364-2.5-1.364s-1.636.5-2.5 1.364c-.864.863-1.909 1.954-3.954 1.954-2.046 0-3.091-1.09-3.955-1.954-.864-.864-1.364-1.364-2.5-1.364s-1.636.5-2.5 1.364C159 3.909 157.955 5 155.909 5c-2.045 0-3.09-1.09-3.954-1.954-.864-.864-1.364-1.364-2.5-1.364s-1.636.5-2.5 1.364C146.091 3.909 145.046 5 143 5c-2.045 0-3.091-1.09-3.954-1.954-.864-.864-1.364-1.364-2.5-1.364-1.137 0-1.637.5-2.5 1.364-.864.863-1.909 1.954-3.955 1.954-.545 0-.954-.364-.954-.864s.409-.863.954-.863c1.137 0 1.637-.5 2.5-1.364.864-.863 1.909-1.954 3.955-1.954 2.045 0 3.091 1.09 3.954 1.954.864.864 1.364 1.364 2.5 1.364 1.137 0 1.637-.5 2.5-1.364.864-.863 1.909-1.954 3.955-1.954 2.045 0 3.091 1.09 3.954 1.954.864.864 1.364 1.364 2.5 1.364 1.137 0 1.637-.5 2.5-1.364.864-.863 1.91-1.954 3.955-1.954s3.091 1.09 3.955 1.954c.863.864 1.363 1.364 2.5 1.364 1.136 0 1.636-.5 2.5-1.364.863-.863 1.909-1.954 3.954-1.954 2.046 0 3.091 1.09 3.955 1.954.863.864 1.363 1.364 2.5 1.364 1.136 0 1.636-.5 2.5-1.364.863-.863 1.909-1.954 3.954-1.954 2.046 0 3.091 1.09 3.955 1.954.863.864 1.363 1.364 2.5 1.364.545 0 .954.363.954.863s-.409.864-.954.864Z"/></svg>