<svg xmlns="http://www.w3.org/2000/svg" fill="none" viewBox="0 0 115 152" height="152" width="115">
<g clip-path="url(#clip0_257_290)">
<path fill="white" d="M18.3484 77.7051H98.2138V139.934C98.2138 146.587 92.8247 152 86.1693 152H30.3929C23.7515 152 18.3484 146.601 18.3484 139.934V77.7051Z"></path>
<path fill="#007934" d="M72.647 132.506C72.7877 131.618 73.0551 130.251 72.5767 128.997C71.8169 126.967 69.6078 126.051 69.6078 126.051C69.6078 126.051 68.6369 128.391 69.3967 130.42C69.9032 131.759 71.043 132.619 71.7606 133.042C71.8731 133.112 72.239 133.366 72.2953 133.634C72.4078 134.155 72.3938 134.888 72.436 135.17V135.269L72.647 135.41H72.6611V135.325C72.6611 135.057 72.7596 134.578 72.9566 134.282C73.1817 133.958 73.4491 133.859 73.6038 133.831C74.434 133.733 75.7848 133.408 76.7557 132.422C78.2894 130.885 78.3597 128.348 78.3597 128.348C78.3597 128.348 75.9677 128.278 74.434 129.8C73.1395 131.097 72.844 133 72.8018 133.577C72.8018 133.577 72.7455 133.972 72.647 134.169C72.647 134.169 72.4641 133.577 72.6611 132.492M71.3807 131.139C70.7193 129.758 69.9736 128.193 69.7203 126.431V126.333C69.7203 126.333 70.1847 128.546 71.5354 131.054C71.8028 131.562 72.042 132.098 72.239 132.591C72.2671 132.704 72.239 132.971 72.2249 133C72.0279 132.436 71.7184 131.816 71.3947 131.139M73.0551 133.535C73.0551 133.535 73.0551 133.521 73.041 133.507C73.041 133.394 73.0973 133.225 73.1114 133.112C73.4913 132.506 73.9978 131.9 74.6873 131.195C75.9255 129.941 77.3889 128.983 77.9658 128.574C77.3467 129.025 74.2511 131.308 73.0551 133.535Z"></path>
<path fill="#001B72" d="M37.2874 145.614H34.2059L29.6892 133.183H31.1526C32.0109 133.281 32.7707 133.761 33.2069 134.479V134.522L35.7115 141.879L35.7678 142.232L35.8663 141.865L38.0191 135.381V135.353L38.2301 134.733C38.6382 133.873 39.4543 133.295 40.383 133.183H41.8182L37.2874 145.614Z"></path>
<path fill="#001B72" d="M59.9413 145.614H53.9753V133.183H61.9253V133.465C61.7142 134.578 60.8278 135.424 59.7021 135.579H59.6881H56.8176V138.059H61.658V138.482C61.4328 139.441 60.6871 140.216 59.7303 140.442H59.6881H56.8176V143.204H61.9394V143.627C61.7142 144.6 60.9403 145.375 59.9835 145.6H59.9554L59.9413 145.614Z"></path>
<path fill="#001B72" d="M49.6414 145.614H43.6614V133.183H51.6395L51.6113 133.394C51.4284 134.536 50.5138 135.424 49.3882 135.579H49.36H46.5037V138.059H51.344V138.341C51.1611 139.37 50.4012 140.202 49.3882 140.456H49.3459H46.5037V143.218H51.6113V143.697C51.3721 144.656 50.6264 145.389 49.6696 145.614H49.6414Z"></path>
<path fill="#001B72" d="M81.5538 133.183H78.9085L74.3074 145.614H76.0099C76.7416 145.431 77.3748 144.952 77.7547 144.289L78.219 142.936H82.2433L82.6513 144.148V144.177C83.0312 144.91 83.7066 145.431 84.5086 145.614H86.1549L81.5397 133.183H81.5538ZM78.7678 140.794L79.9216 137.411L80.1889 136.185H80.2874L80.5829 137.425L81.7226 140.794H78.7819H78.7678Z"></path>
<path fill="#001B72" d="M71.2118 139.243V139.145C72.239 138.708 72.8862 137.749 72.8862 136.65C72.8862 134.86 71.2118 133.38 68.1866 133.38H64.4719V145.445H68.8761C71.9013 145.445 73.5757 143.979 73.5757 142.161C73.5757 140.822 72.6892 139.624 71.2118 139.243ZM69.059 143.317H67.1735V135.677H68.3695C69.5233 135.677 70.2831 136.171 70.2831 136.918C70.2831 137.58 69.9314 138.031 69.27 138.2L69.5092 138.13C68.9183 138.271 68.6509 138.835 68.6509 139.37C68.6509 139.948 69.1153 140.441 69.664 140.582C70.5083 140.709 70.9867 141.231 70.9867 142.062C70.9867 142.894 70.2831 143.331 69.0731 143.331L69.059 143.317Z"></path>
<path fill="#001B72" d="M86.4083 133.662C86.0987 133.352 85.7047 133.197 85.2685 133.197C84.8323 133.197 84.4384 133.352 84.1288 133.662C83.8192 133.972 83.6504 134.353 83.6504 134.79C83.6504 135.226 83.8052 135.621 84.1147 135.931C84.4243 136.241 84.8042 136.396 85.2545 136.396C85.7047 136.396 86.0846 136.241 86.3942 135.931C86.7037 135.621 86.8585 135.241 86.8585 134.79C86.8585 134.338 86.7037 133.972 86.3942 133.662H86.4083ZM86.2675 135.79C86.0002 136.058 85.6625 136.199 85.2685 136.199C84.8745 136.199 84.5368 136.058 84.2554 135.79C83.9881 135.522 83.8474 135.184 83.8474 134.79C83.8474 134.395 83.9881 134.071 84.2554 133.803C84.5228 133.535 84.8605 133.394 85.2545 133.394C85.6484 133.394 85.9721 133.535 86.2535 133.803C86.5349 134.085 86.6615 134.409 86.6615 134.79C86.6615 135.17 86.5208 135.508 86.2535 135.79H86.2675Z"></path>
<path fill="#001B72" d="M85.775 134.959C85.775 134.959 85.7187 134.902 85.6765 134.888C85.7187 134.902 85.7469 134.93 85.775 134.959Z"></path>
<path fill="#001B72" d="M85.5077 135.015C85.6202 135.072 85.6765 135.198 85.6765 135.396V135.579H85.9157C85.9157 135.579 85.9016 135.537 85.9016 135.494C85.9016 135.438 85.9016 135.41 85.9016 135.368V135.241C85.9016 135.156 85.8735 135.086 85.8172 135.001C85.7609 134.916 85.6624 134.86 85.5499 134.846H85.4655L85.5499 134.818C85.6484 134.804 85.7187 134.776 85.775 134.733C85.8876 134.663 85.9298 134.564 85.9298 134.423C85.9298 134.226 85.8454 134.085 85.6765 134.014C85.578 133.972 85.4373 133.958 85.2403 133.958H84.6775V135.551H84.9448V134.916H85.184C85.3388 134.916 85.4514 134.931 85.5077 134.973V135.015ZM84.9448 134.169H85.1981C85.3529 134.169 85.4795 134.184 85.5499 134.226C85.6202 134.268 85.6624 134.353 85.6624 134.48C85.6624 134.606 85.6062 134.691 85.4795 134.747C85.4232 134.776 85.3247 134.776 85.1981 134.776H84.9308V134.169H84.9448Z"></path>
<path fill="#001B72" d="M51.8928 115.902H53.8346V118.594C53.8346 118.862 53.8064 119.13 53.7924 119.539H53.8205C54.2145 118.735 54.7351 118.439 55.5512 118.468C56.8035 118.496 57.5211 119.144 57.5633 121.456V124.514C57.5211 125.867 57.1834 127.362 55.5512 127.362C54.7492 127.319 54.2004 127.08 53.7783 126.234H53.7502V127.136H51.8928V115.902ZM53.8346 124.359C53.8346 125.332 54.1441 125.853 54.7773 125.853C55.4105 125.853 55.5793 125.205 55.6216 124.402V121.583C55.5653 120.751 55.6497 119.948 54.7351 119.948C53.8205 119.948 53.7924 121.146 53.8205 121.822V124.345L53.8346 124.359Z"></path>
<path fill="#001B72" d="M60.8278 118.679L61.672 123.161C61.8127 123.908 61.8831 124.655 61.9534 125.402H61.9816C62.0378 124.67 62.1504 123.937 62.277 123.218L63.1354 118.679H65.1053L63.0509 127.235C62.5585 129.152 62.5162 130.35 59.8287 129.955V128.447C60.1383 128.447 60.9825 128.616 60.9825 128.066C60.9825 127.77 60.884 127.291 60.7996 126.995L58.7734 118.679H60.8278Z"></path>
<path fill="white" d="M114.902 57.6482C114.902 89.39 89.2084 115.127 57.5212 115.127C25.8339 115.127 0.126709 89.4041 0.126709 57.6482C0.126709 25.8922 25.8198 0.168945 57.5212 0.168945C89.2225 0.168945 114.902 25.9063 114.902 57.6482Z"></path>
<path fill="white" d="M114.775 57.6481C114.789 57.8314 114.831 57.7327 114.803 57.2112L114.719 56.8447L114.775 57.6481Z"></path>
<path fill="white" d="M114.719 54.1385C114.662 53.5183 114.564 52.8276 114.536 53.2223C114.62 53.8284 114.606 53.9693 114.719 54.6318C114.747 55.1533 114.747 55.548 114.719 55.4634C114.747 55.6466 114.747 56.2809 114.803 56.5628C114.817 55.8862 114.775 55.0124 114.69 54.1244C114.69 53.927 114.719 54.1244 114.733 54.1667L114.719 54.1385Z"></path>
<path fill="white" d="M90.8125 10.7822L91.0658 10.9796C90.9954 10.9232 90.911 10.8527 90.8125 10.7822Z"></path>
<path fill="white" d="M90.8124 10.7823L90.1511 10.2607C90.1511 10.2607 90.4888 10.5285 90.8124 10.7823Z"></path>
<path fill="white" d="M113.734 47.1616C113.762 47.3308 113.79 47.4717 113.818 47.6127L113.748 47.1898V47.1616H113.734Z"></path>
<path fill="white" d="M101.155 20.1694L101.323 20.3527L101.492 20.4936L101.155 20.1694Z"></path>
<path fill="white" d="M107.346 28.9228C107.219 28.7114 107.135 28.6691 107.064 28.5986C107.149 28.7114 107.261 28.8523 107.374 29.0356C107.374 29.0356 107.374 29.0074 107.346 28.9228Z"></path>
<path fill="white" d="M113.466 44.7651L113.551 45.0611C113.523 44.9907 113.494 44.8638 113.466 44.7651Z"></path>
<path fill="white" d="M95.7653 14.6725C95.7653 14.6725 95.7371 14.6161 95.709 14.5879C95.709 14.5879 95.7231 14.6302 95.7653 14.6725Z"></path>
<path fill="white" d="M114.916 57.6479V57.8171C114.916 57.8171 114.916 57.8594 114.944 57.8594L114.916 57.6479Z"></path>
<path fill="white" d="M46.0393 1.05696C46.0393 1.05696 46.0674 1.05696 46.0815 1.05696C46.3348 1.01468 46.1941 1.02877 46.0393 1.05696Z"></path>
<path fill="white" d="M1.22423 69.8544C1.01317 68.8395 1.70264 71.4753 1.36494 69.953C1.37901 70.094 0.928749 68.5999 1.22423 69.8544Z"></path>
<path fill="white" d="M113.706 46.8798L113.635 46.4429C113.663 46.6402 113.692 46.7671 113.706 46.8798Z"></path>
<path fill="white" d="M1.37897 69.9529L1.35083 69.7979C1.35083 69.7979 1.37897 69.8965 1.37897 69.9529Z"></path>
<path fill="white" d="M25.0881 9.95059C25.0881 9.95059 25.2007 9.88011 25.2851 9.82373C25.2851 9.82373 25.2288 9.85192 25.0881 9.95059Z"></path>
<path fill="white" d="M40.4111 2.60742L40.0171 2.74837C40.1719 2.69199 40.2985 2.64971 40.4111 2.60742Z"></path>
<path fill="white" d="M18.2639 15.5889C18.095 15.7439 18.0388 15.7862 17.7996 15.9976C17.8277 15.9835 17.8418 15.9553 17.8699 15.9412C17.9543 15.8567 18.0528 15.758 18.2498 15.5889H18.2639Z"></path>
<path fill="white" d="M12.0728 22.3826C12.0728 22.3826 12.1431 22.298 12.1853 22.2557C12.2416 22.1853 12.2979 22.1007 12.3542 22.0161L12.0728 22.3826Z"></path>
<path fill="white" d="M101.112 94.6475C101.253 94.5066 101.352 94.422 101.436 94.3656C101.309 94.4502 102.21 93.4353 101.112 94.6475Z"></path>
<path fill="white" d="M113.762 47.1472C113.762 47.1472 113.72 47.0203 113.691 46.8794C113.705 46.9781 113.72 47.0767 113.734 47.1754C113.734 47.2036 113.748 47.2036 113.748 47.1331L113.762 47.1472Z"></path>
<path fill="white" d="M18.2778 16.1523L17.1943 17.1249C17.5039 16.8571 17.8838 16.5047 18.2778 16.1523Z"></path>
<path fill="white" d="M41.7197 112.661L42.0434 112.731C41.9167 112.703 41.8182 112.675 41.7197 112.661Z"></path>
<path fill="white" d="M14.3099 20.3105C14.1129 20.5079 13.93 20.6911 13.733 20.8884C13.7049 20.9307 13.6627 20.9871 13.6345 21.0294L14.3099 20.3105Z"></path>
<path fill="white" d="M106.782 86.43C106.065 87.614 106.501 87.022 106.389 87.2898C105.544 88.7134 105.952 87.91 105.629 88.3751C105.375 88.8121 105.15 89.2208 104.939 89.6014C104.714 89.9538 104.489 90.2779 104.25 90.588C104.208 90.6303 104.109 90.7431 104.208 90.588C103.588 91.4901 102.28 93.1956 101.548 94.2386C101.478 94.3091 101.45 94.3373 101.422 94.3514C101.59 94.2245 101.633 94.2245 101.633 94.2668C101.21 94.7319 100.887 95.1548 100.69 95.2958C100.943 95.0139 100.957 94.9716 101.07 94.8306L100.648 95.3239C100.197 95.7186 101.225 94.6474 101.196 94.6192C100.366 95.5776 99.4094 96.7053 98.734 97.4241C98.5511 97.5368 100.254 95.7186 99.3391 96.6489L100.366 95.5495C99.522 96.3388 100.985 94.8729 100.197 95.5917C98.8325 97.0153 98.7903 97.3113 97.341 98.6503C97.0315 98.9745 97.4817 98.594 97.1862 98.9182C95.146 100.863 95.4415 100.285 93.9781 101.737C93.5982 102.104 93.4716 102.287 92.2615 103.133L92.6133 102.78C91.0796 103.922 91.7972 103.527 90.165 104.683C90.4323 104.443 91.361 103.753 91.1218 103.922C90.0524 104.655 90.4042 104.514 89.6021 105.106C89.5318 105.134 89.4614 105.148 89.3911 105.162C88.5328 105.698 87.6182 106.262 86.6754 106.854C85.7327 107.432 84.804 108.08 83.7769 108.531C83.8754 108.46 84.213 108.277 83.7346 108.489C82.4401 109.109 81.0893 109.771 79.7245 110.42C78.3033 110.927 76.8963 111.42 75.6018 111.886L74.6309 112.294C74.4058 112.379 74.1806 112.393 74.448 112.322C73.4067 112.562 74.4058 112.365 73.9133 112.52C73.3223 112.675 73.1253 112.689 73.4912 112.576C72.5766 112.83 71.268 113.182 69.9735 113.549C69.3262 113.746 68.6508 113.873 68.0176 113.957C67.3845 114.042 66.8076 114.127 66.301 114.197L66.6809 114.127C65.1472 114.338 64.9643 114.507 63.5291 114.676L63.7964 114.62C62.122 114.775 60.3491 114.817 58.6747 114.916C58.2526 114.93 57.8445 114.958 57.4365 114.972C57.0284 114.944 56.6485 114.93 56.2545 114.902C55.4947 114.845 54.7912 114.803 54.1439 114.747C53.9047 114.775 53.0605 114.719 52.2725 114.676C51.4705 114.676 50.7247 114.479 50.6122 114.535C48.7126 114.183 49.2614 114.253 46.602 113.802C45.8844 113.704 45.5326 113.647 44.6603 113.45V113.394L43.4642 113.154L42.8592 112.929L42.0431 112.731C42.3667 112.816 42.7185 112.929 42.6763 112.943C42.0431 112.788 41.2692 112.576 40.6501 112.407C40.3405 112.322 40.0873 112.196 39.9043 112.111C39.7214 112.026 39.6089 111.984 39.5948 111.97L36.6681 110.955C36.7384 110.955 37.2309 111.124 37.6249 111.251C36.049 110.744 37.3716 111.096 35.9223 110.617C36.1053 110.702 35.8098 110.617 35.7676 110.617C35.064 110.349 33.5444 109.532 32.3765 109.024L32.6157 109.095C30.5051 108.179 28.3523 106.811 26.1432 105.472C26.9171 105.966 26.706 105.923 26.0588 105.529L25.8336 105.317C25.3974 105.092 26.495 105.754 25.6085 105.261C24.8205 104.697 25.1301 104.824 25.5804 105.134L24.6235 104.457C24.6235 104.457 24.8065 104.556 24.8768 104.584C24.4688 104.331 23.3009 103.316 22.6959 102.963L22.6536 102.907C22.133 102.526 21.6968 102.188 21.2888 101.892C20.8948 101.582 20.5712 101.258 20.2475 100.962C19.6003 100.37 18.9953 99.8202 18.2073 99.1296C18.1369 99.1296 17.546 98.5799 17.0535 98.1852C16.0263 97.0294 14.8866 95.7468 13.6484 94.3514C12.7901 93.3647 13.367 94.0836 12.9871 93.6466C12.973 93.5339 11.8473 92.0539 12.4524 92.8009C11.777 91.913 11.3549 91.3351 10.8764 90.7149C10.6372 90.4048 10.384 90.0806 10.0885 89.686C9.83522 89.2772 9.52566 88.7839 9.14575 88.1919C9.28646 88.4597 9.45531 88.7698 9.35681 88.6147C9.08947 88.1778 8.76584 87.5999 8.82212 87.6563L8.89248 87.7691C8.04823 86.43 7.06328 84.8796 6.40196 83.2446C6.03612 82.4553 5.67028 81.6659 5.34666 80.9612C5.17781 80.6088 5.00896 80.2564 4.85418 79.9323C4.72754 79.594 4.60091 79.2839 4.48834 78.9879L4.54462 79.1147L3.60189 76.6763C3.19384 75.5346 3.8833 77.3388 3.60189 76.4931C3.34861 75.8306 3.12348 75.2386 2.91242 74.6889C2.77171 74.1251 2.63101 73.5895 2.50437 73.0821C2.2511 72.0532 2.0119 71.0947 1.70234 69.9812C1.47721 69.1073 1.35057 67.5146 1.05509 65.8655C0.92845 65.0339 0.773672 64.1882 0.675177 63.3989C0.632965 62.5955 0.604823 61.8625 0.604823 61.2564L0.576682 61.3974C0.506328 60.7772 0.562611 60.6363 0.54854 60.1711C0.520399 60.2416 0.54854 60.8477 0.520399 60.4671C0.253055 57.8032 0.520399 55.0688 0.661106 52.3061C0.773672 50.9248 1.06916 49.5717 1.26615 48.2045L1.58977 46.1607C1.75862 45.4983 1.94154 44.8358 2.11039 44.1734C2.61694 42.2423 2.22296 43.0317 2.92649 40.6214L2.81393 41.3262C3.33454 39.3811 4.13657 37.4782 4.81197 35.5472C5.68435 33.7008 6.55674 31.8544 7.42912 30.0784C7.33063 30.2898 7.31656 30.3321 7.16178 30.6422C7.3447 30.2757 7.78089 29.6274 8.10452 29.0495C8.27337 28.7676 8.42814 28.4998 8.54071 28.3024C8.65328 28.1051 8.70956 27.9782 8.70956 27.9642C9.03319 27.4426 8.80805 27.8655 9.01911 27.5413C9.48345 26.8507 10.0322 25.6949 10.3558 25.3848C10.4121 25.3284 10.2292 25.5821 10.1448 25.709C10.4403 25.2579 11.6644 23.6793 11.3126 24.0598C12.2272 22.9041 12.9589 21.7483 13.7469 20.8744C14.2253 20.2683 15.4635 19.0139 15.5761 18.7742C15.5761 18.9152 17.3349 16.8573 18.0525 16.2653C17.8415 16.4909 18.6716 15.7438 18.4324 16.0116C19.2204 15.2928 19.938 14.6303 19.7691 14.7149C21.2325 13.4041 22.7803 12.1637 23.7371 11.5858C24.3703 11.1066 24.9753 10.6274 25.5804 10.1622C26.2276 9.75347 26.8749 9.35881 27.494 8.96415C28.1272 8.56949 28.7463 8.18893 29.3654 7.79427L30.28 7.23047L31.2509 6.75124C31.2368 6.83581 30.491 7.11771 29.8579 7.52647C29.2106 7.92113 28.5915 8.30169 28.6618 8.31578C29.2247 7.94932 29.7453 7.63923 30.2237 7.32914C30.7162 7.06133 31.1946 6.82172 31.673 6.5821C32.6157 6.10288 33.5725 5.62365 34.7826 5.05985C35.4158 4.76385 34.4449 5.27127 34.2338 5.38403C35.4158 4.72157 36.6822 4.38329 37.8641 3.91816C39.0601 3.5235 40.1858 2.9738 41.3536 2.70599C41.3536 2.70599 41.1004 2.79056 40.8612 2.86104C41.3255 2.73418 41.9305 2.59323 41.8742 2.57914L41.424 2.70599C40.6782 2.84694 43.211 2.1281 43.2954 2.07172C42.5496 2.38181 45.603 1.50792 44.3929 1.95896C44.6884 1.87439 45.0683 1.76163 44.9979 1.74753C45.4482 1.63477 45.5889 1.62068 45.1387 1.76163C45.9548 1.52201 46.2221 1.46564 46.4754 1.42335C46.7286 1.36697 46.9538 1.32469 47.7136 1.21193C47.7136 1.22602 47.404 1.2824 47.2493 1.32469C48.0091 1.16964 48.783 1.0146 50.0634 0.831362C49.9931 0.859552 50.1338 0.845457 49.7539 0.901837C51.9489 0.478988 53.5248 0.450798 55.9731 0.323944C55.2555 0.436703 56.8033 0.309849 56.944 0.380324C57.3802 0.338039 57.8164 0.352134 58.2526 0.380324L57.7179 0.323944C58.8717 0.380324 59.8848 0.380324 60.8838 0.450798H60.0255L62.1924 0.535368L60.9682 0.450798C62.1361 0.478988 60.8557 0.352134 62.3894 0.450798C62.0798 0.450798 63.5432 0.478988 64.1341 0.662223C64.697 0.718602 65.2879 0.789077 66.1322 0.944122C66.3432 1.0005 65.9492 1.0005 66.09 1.02869C66.6528 1.07098 68.7775 1.38107 69.481 1.50792C69.2418 1.46564 69.2277 1.50792 69.2981 1.52201L69.7624 1.59249C70.283 1.74753 70.3534 1.76163 70.2549 1.77572C71.8167 2.18448 69.7765 1.5643 71.6198 2.07172C71.479 2.04353 71.5353 2.05762 71.2398 1.98715C73.0972 2.48047 74.856 2.83285 76.4742 3.53759C76.9385 3.7913 75.0249 3.03018 75.5596 3.28388C76.7556 3.70673 77.9938 4.14368 79.232 4.58062C80.4562 5.01756 81.5959 5.65184 82.7215 6.17335L82.3135 5.96193C82.6653 6.0324 83.9598 6.77943 85.0714 7.32914C84.804 7.17409 84.6915 7.18819 84.7759 7.20228C86.197 8.10436 87.7589 8.93596 89.9117 10.3032L89.6443 10.134C90.4464 10.7401 91.7268 11.7127 92.5851 12.361C92.8525 12.5302 93.3449 12.8966 93.0635 12.6429C93.3872 12.9107 93.7108 13.1644 94.0203 13.4182C94.3158 13.7001 94.6113 13.9679 94.8927 14.2357C95.4837 14.7572 96.0606 15.2787 96.6375 15.7861C97.2003 16.3076 97.8054 16.7728 98.3119 17.3225C98.8185 17.8722 99.3109 18.4219 99.7753 18.9857C99.5361 18.732 99.1984 18.3796 99.3813 18.591L101.084 20.4234C100.985 20.2542 100.887 20.1696 100.549 19.7468C100.788 19.9582 101.267 20.4797 101.689 20.9308C100.901 20.1274 101.661 20.959 101.928 21.3818C101.886 21.3113 101.998 21.4382 101.984 21.3818C102.702 22.4812 102.181 21.5087 103.209 22.9604L103.138 22.9041C103.546 23.4397 103.94 23.9048 104.362 24.4827C104.503 24.7505 103.912 23.933 103.856 23.9189C104.461 24.7364 105.164 25.4412 105.558 26.2728C105.319 25.9063 105.01 25.3848 104.728 25.0606C105.277 25.8922 105.291 26.019 105.685 26.6392L105.643 26.5828L106.501 28.0628L106.29 27.6823C106.67 28.1897 107.022 28.7394 107.373 29.3314C107.556 29.6274 107.739 29.9374 107.936 30.2757C108.105 30.614 108.288 30.9523 108.499 31.3469C107.711 29.8952 108.344 31.1214 108.232 31.0369C108.401 31.4315 108.682 32.0376 108.584 31.8826C108.978 32.5873 109.132 33.1088 109.681 34.1096C109.681 34.1659 110.047 34.8848 109.934 34.7438C110.399 35.6882 109.864 34.5042 109.92 34.5747C110.68 36.0124 111.187 38.1548 112.101 40.2831C112.692 42.2001 112.805 42.5524 113.311 44.3425C113.438 44.9627 113.114 43.8633 113.114 43.8633C113.325 44.8499 113.579 45.5828 113.747 46.5131C113.705 46.3299 113.719 46.5131 113.747 46.8232C113.86 47.5843 113.888 47.3165 114.015 48.3173C113.973 48.1481 113.902 47.9367 113.832 47.5702C113.987 48.4582 114.141 49.3462 114.31 50.2624C114.31 50.5161 114.17 49.7127 114.099 49.3885C114.268 50.4174 114.564 52.0665 114.578 52.3907V51.7141C114.578 52.0947 114.535 51.9115 114.493 51.6296C114.324 50.7416 114.31 50.3469 114.324 50.2906L114.437 50.953C114.437 50.2624 114.015 48.3032 113.818 46.9923L113.987 47.528L113.719 46.1748C113.677 45.8788 113.705 45.6815 113.818 46.3299C113.677 45.3714 113.593 45.5124 113.452 44.6949C113.438 44.6103 113.452 44.6385 113.48 44.7231L113.227 43.821C113.283 43.9901 113.241 43.6518 113.382 44.2156C113.002 42.5665 112.65 41.594 112.551 40.9597L112.594 41.1007C111.876 38.8736 112.495 40.8892 111.848 39.2542L111.581 38.0984L111.44 37.9011C111.355 37.6756 111.201 37.2245 111.257 37.295C110.905 36.4634 111.285 37.4501 111.074 36.9708C110.891 36.4211 110.638 35.66 110.356 35.0257C110.061 34.4055 109.808 33.884 109.794 33.7431C109.568 33.3907 110.244 34.7579 109.681 33.6585C109.625 33.292 109.048 32.3759 108.626 31.4033C108.809 31.6711 109.231 32.5873 108.809 31.6147C108.626 31.3469 108.415 30.8818 108.19 30.3744C107.95 29.8811 107.641 29.3877 107.416 28.9931C107.331 28.9931 106.374 27.344 105.586 26.0613C105.727 26.0895 103.996 23.7216 103.166 22.594L103.194 22.6222C102.955 22.4671 102.167 21.2409 101.436 20.4938C101.492 20.4938 101.647 20.6207 102.027 21.0435C101.83 20.7898 101.59 20.5502 101.365 20.3106C101.196 20.1555 100.971 19.93 100.535 19.4649L100.746 19.6199C99.8456 18.6615 98.9592 17.6607 97.7632 16.4627C97.6647 16.4345 98.6637 17.4634 97.3129 16.2794C97.2848 16.2231 97.2707 16.1385 97.6224 16.4486C97.5099 16.3499 97.2003 16.0962 96.9893 15.8848L97.5521 16.3358C96.9893 15.8002 97.2285 16.0962 96.7782 15.6734C96.8063 15.6593 96.4546 15.3492 96.539 15.3915C96.6516 15.4901 96.9189 15.7579 97.1159 15.913C96.6093 15.4337 96.0043 14.8558 95.8214 14.6444C95.8495 14.7008 95.7932 14.6867 95.4133 14.3484C94.4425 13.4604 95.1038 14.0101 94.555 13.4745C94.3158 13.2631 93.6545 12.7416 93.6123 12.7698C93.3027 12.5443 93.2605 12.4738 93.1479 12.3751C92.5851 11.9805 90.6012 10.4723 91.1781 10.9797L91.3188 11.0925C91.3188 11.0925 91.2625 11.0502 91.2343 11.022C90.7841 10.6837 90.3197 10.3596 89.8695 10.0213C89.4051 9.69709 88.8986 9.41519 88.4061 9.09101C87.4212 8.48492 86.4362 7.87884 85.4935 7.30095C84.3538 6.62439 82.8623 5.99012 82.0039 5.59546C81.6522 5.42632 81.1878 5.15851 81.3426 5.21489C80.414 4.80614 80.3436 4.69338 78.9787 4.18596C79.9496 4.51015 78.6551 4.03092 79.9637 4.52424C78.7395 4.05911 78.4722 3.93225 77.1355 3.49531C77.5998 3.60807 76.2209 3.10065 75.644 2.90332L76.5023 3.25569C75.841 3.01608 75.2641 2.80466 74.6872 2.59323L75.0249 2.64961C73.7585 2.21267 72.5625 1.98715 71.465 1.71934C70.3534 1.49383 69.3544 1.15555 68.3413 0.986407C67.6377 0.930027 69.7765 1.24012 69.1433 1.19783C67.9192 1.0005 66.6669 0.718602 66.2869 0.662223C64.6125 0.394419 64.7251 0.464893 62.9663 0.281659C63.1914 0.309849 63.4025 0.380324 62.0798 0.338039C60.8416 0.267564 60.5742 0.168899 61.3481 0.182994C61.6436 0.182994 61.7843 0.211184 61.7702 0.211184C62.1642 0.211184 62.6989 0.239374 62.2064 0.197089H62.0376C61.4325 0.154804 59.73 0.0702345 60.124 0.0561396C59.1953 0.0279497 59.73 0.0702345 60.4195 0.126614C58.8435 0.0420446 57.943 -0.08481 56.3108 0.0279497C56.5641 0.0279497 56.8033 0.0279497 56.55 0.0561396C54.158 0.154804 55.4947 0.154804 53.8766 0.239374C52.9479 0.239374 54.2002 0.140709 52.568 0.239374C51.569 0.267564 52.3569 0.182994 52.7509 0.154804C52.371 0.182994 52.0192 0.197089 51.6815 0.225279C51.3438 0.267564 51.0202 0.323944 50.7107 0.366229C50.1056 0.450798 49.5569 0.507178 49.1488 0.563558L49.9227 0.422608C49.4584 0.493083 49.0785 0.563558 48.6985 0.619938L49.1488 0.591748C48.6985 0.648128 48.3046 0.718603 48.3186 0.690413C47.8543 0.789077 48.6845 0.704508 47.7699 0.887742C47.1648 0.972312 46.1799 1.12736 45.7156 1.19783C47.6151 0.859552 45.4904 1.15555 47.0945 0.887742C46.7849 0.944122 46.405 1.0005 45.9407 1.07098C45.8703 1.07098 45.997 1.04279 46.1236 1.0146C44.3085 1.39516 45.3075 1.2824 43.4502 1.76163C43.6753 1.66296 42.9999 1.80391 42.7044 1.88848C43.4502 1.69115 43.0703 1.8462 42.3949 2.05762C41.1989 2.33952 41.1144 2.41 40.4812 2.56504L41.1989 2.3959C40.9597 2.48047 40.3687 2.62142 39.5807 2.9597C39.5104 2.9597 40.2983 2.6778 40.0169 2.76237C39.1445 3.14294 37.9767 3.43893 36.7525 3.93225C36.1615 4.11549 36.6681 3.88997 36.1615 4.05911C34.7685 4.58062 34.67 4.65109 33.263 5.32765C33.6851 5.17261 33.7554 5.13032 32.7846 5.65184L35.0781 4.51015L33.6288 5.28537C34.3323 4.96118 35.0781 4.52424 35.5143 4.38329C34.7967 4.69338 34.8811 4.69338 35.2329 4.55243C34.2479 4.94709 33.3615 5.49679 32.2358 5.99012V5.87736C31.3916 6.27202 30.6317 6.5962 29.8719 7.04724C29.1262 7.52647 28.3241 8.03389 27.2829 8.63997L27.9442 8.2594C27.691 8.47083 26.6919 9.03463 26.0306 9.44338C26.0728 9.37291 25.6507 9.61252 25.3552 9.76756C25.3974 9.76756 23.9482 10.8106 23.8215 11.0079L22.9351 11.614C21.3873 12.7698 21.2044 12.9812 19.8395 14.2357C20.2194 13.8269 19.5862 14.3766 20.4868 13.5168C20.0224 13.9397 19.6144 14.3061 19.6144 14.3343C19.333 14.5598 18.3761 15.5324 17.94 15.8848C17.757 16.068 17.7289 16.1526 17.2083 16.6177C17.152 16.66 17.2083 16.6036 17.2083 16.6036C17.2083 16.6036 16.4625 17.3929 16.9128 16.9842C16.2374 17.6466 15.3369 18.6333 14.4645 19.6058C14.0283 20.0851 13.5921 20.5643 13.2122 21.0012C12.8604 21.4664 12.5368 21.8751 12.2695 22.1993C11.4815 23.2987 10.4825 24.5955 9.793 25.5962C9.82115 25.5257 9.793 25.5962 9.90557 25.3848C8.99097 26.8084 9.45531 26.3291 8.42814 27.9642C7.86531 28.7676 8.93469 27.0762 8.59699 27.5836C8.37186 27.7668 7.35877 29.5569 6.72559 30.6845L6.85222 30.4026C6.38789 31.2765 5.83913 32.6014 5.1356 34.0673C5.1356 34.0673 5.16374 33.9968 5.1356 34.0532C4.64312 35.0539 4.02401 37.0554 3.48932 38.5213C3.61596 38.0561 3.71445 37.8447 3.55967 38.1125C3.32047 38.775 3.70038 37.9434 3.23605 39.2542C3.0672 39.663 2.75764 40.3818 2.61694 40.7201C2.71543 40.2972 2.89835 39.8885 3.03906 39.4797C2.89835 39.7898 2.7295 40.1845 2.61694 40.5932C2.51844 41.0161 2.41995 41.4248 2.33552 41.7631V41.6644C1.84305 43.6236 1.89933 43.6659 1.36464 45.7661L1.44907 45.5547C1.25208 46.7245 1.23801 46.5272 1.08323 47.6971L0.956591 48.0354C0.872167 48.8106 0.576682 50.7416 0.464116 52.137C0.450045 51.3336 0.717389 49.7268 0.829955 48.7119C0.717389 49.4731 0.435975 51.3195 0.421904 51.7141C0.464116 51.4041 0.506328 51.0094 0.562611 50.7134C0.421904 51.6578 0.450045 52.9122 0.365621 54.4486C0.238984 54.1667 0.0701358 58.4656 0.15456 59.5791C0.238984 60.9604 0.309338 62.2995 0.393762 63.709C0.604823 65.1044 0.815884 66.5561 1.04102 68.1348C0.984733 66.9931 1.18172 69.0509 1.26615 68.8395C1.37871 69.5725 1.50535 69.8403 1.50535 69.8966L1.99782 72.0814C2.09632 72.6029 1.80083 71.4048 1.78676 71.4753C2.18074 73.0539 1.9134 72.1518 2.1526 73.1949C2.13853 72.9693 2.34959 73.7305 2.56065 74.6326L2.29331 73.3499C2.58879 74.4493 2.70136 74.9286 2.87021 75.3937C3.01092 75.8588 3.16569 76.338 3.58782 77.4093L3.3064 76.7468C3.51746 77.2965 3.89737 78.3113 4.26321 79.3262C4.60091 80.3551 5.17781 81.2854 5.44515 81.7928C5.52957 81.9901 5.614 82.2438 5.3748 81.7928C6.00798 83.0472 6.61302 84.499 7.40098 85.7535C8.18894 87.0079 8.92062 88.206 9.46938 89.1504L9.32867 88.9812C9.62416 89.4182 9.82115 89.7564 10.2011 90.278C10.1729 90.2639 10.0463 90.1229 10.2011 90.3202C10.3699 90.5317 11.0734 91.4055 11.4674 91.9693L11.0875 91.5183C11.8895 92.6318 12.5368 93.4634 13.1559 94.2386C13.8454 94.9716 14.4926 95.6622 15.2665 96.4797C15.2384 96.5079 15.5761 96.9167 16.0123 97.4382C16.4485 97.9456 16.9691 98.5658 17.3912 98.9182H17.349C18.5309 99.9612 19.544 100.863 20.529 101.751C21.528 102.625 22.6396 103.302 23.8074 104.19C24.1874 104.486 24.6658 104.866 25.2145 105.303C25.7914 105.726 26.495 106.121 27.2126 106.572C28.6618 107.432 30.1815 108.46 31.5323 109.067C31.1383 108.855 31.6308 109.038 32.1092 109.264C32.7283 109.574 33.8539 110.039 33.7273 110.067L33.5022 109.955C33.9524 110.236 35.2047 110.899 36.26 111.237L36.4711 111.209C37.8078 111.745 39.5667 112.492 41.2411 112.929C42.9296 113.351 44.4492 113.718 45.1949 113.986C45.8703 114.169 46.7286 114.296 47.4181 114.366L47.3759 114.409C48.3327 114.564 49.0503 114.676 49.8242 114.803C50.5981 114.888 51.4283 115.127 52.6243 115.141H52.1318C53.4826 115.226 53.8484 115.085 55.0867 115.141L55.4525 115.24C57.8023 115.466 60.1943 115.24 62.5019 115.099C62.4597 115.099 62.4034 115.141 62.0235 115.156C63.1351 115.212 66.2869 114.705 65.8789 114.662C65.893 114.69 66.498 114.606 67.2578 114.479C68.0036 114.338 68.9182 114.211 69.5373 114.056L69.3544 114.155C70.3815 113.817 70.4097 113.788 71.859 113.408C72.2107 113.323 72.1685 113.365 71.7042 113.478C72.858 113.21 72.5766 113.196 73.9836 112.872L73.4771 113.041C74.659 112.731 74.5605 112.773 75.1796 112.506C75.8972 112.224 77.3465 111.73 77.5294 111.702C77.6702 111.618 78.2893 111.35 78.9647 111.124C79.0632 111.11 78.824 111.209 78.6973 111.265C79.1757 111.096 79.5979 110.941 79.9637 110.8C80.3295 110.645 80.6391 110.462 80.9486 110.321C81.5537 110.011 82.0884 109.743 82.7215 109.461C82.7497 109.461 82.8482 109.433 82.9467 109.391C81.4974 110.081 80.5406 110.546 80.428 110.603C80.4421 110.645 81.624 110.081 80.7235 110.603C81.6522 110.11 83.2422 109.264 84.396 108.728L84.5507 108.672L84.4382 108.728C84.7055 108.601 84.9447 108.489 85.1558 108.362C85.5076 108.15 85.7327 108.023 86.0704 107.826C86.2252 107.784 87.3649 107.065 87.9136 106.727C87.8433 106.713 88.575 106.276 87.8714 106.656C87.9559 106.6 87.7729 106.727 87.4071 106.952C87.3227 107.009 87.2242 107.065 87.1679 107.107L87.2101 107.079C86.8443 107.305 86.3659 107.587 85.8312 107.925C86.2533 107.629 86.7036 107.333 87.3367 106.98C87.6182 106.769 87.9136 106.558 88.0684 106.431C88.8705 106.05 90.3619 105.162 90.5449 105.021C91.3328 104.415 92.2615 103.71 93.1198 103.048C93.5419 102.724 93.95 102.4 94.3158 102.118C94.6535 101.794 94.9349 101.512 95.146 101.286C95.5541 100.891 95.6385 100.877 95.8073 100.736C95.5681 100.962 95.3148 101.216 95.1601 101.357C95.9762 100.581 97.6365 99.0873 97.7772 98.8618C98.8325 97.9174 97.2566 99.4819 98.6355 98.0865L98.4667 98.298C99.8034 96.9167 100.831 95.7186 101.886 94.4923C102.857 93.1956 103.799 91.8143 105.136 90.1511C104.953 90.3766 104.855 90.5035 104.813 90.5457C107.585 86.5428 110.005 81.9478 111.637 77.4234C112.129 76.1407 112.129 75.9857 112.383 75.1964L112.537 74.9285C112.664 74.4634 112.734 73.9983 112.847 73.5331C113.072 72.5465 113.325 71.7149 113.593 70.7987C113.719 70.3336 113.86 69.8685 114.001 69.361C114.099 68.8395 114.17 68.2757 114.254 67.6415L114.17 67.9656C114.31 67.0636 114.592 65.0903 114.606 65.2453C114.606 65.1466 114.606 64.9352 114.69 64.5828L114.718 64.5547C114.845 63.8076 114.873 63.0606 114.887 62.2995C115 60.5517 115 62.5814 115.126 60.0302C115.169 59.0858 115.169 57.3239 115.126 57.6763C115.112 58.0569 115.056 58.6489 115.028 58.6771L115.056 57.8173C114.972 57.6622 114.915 56.9998 114.747 59.114V60.594L114.662 61.0732L114.718 59.8328C114.648 60.5376 114.662 60.9886 114.662 61.482C114.634 61.5947 114.606 61.8061 114.578 62.1021V63.5539C114.521 63.7231 114.592 62.9056 114.451 63.864C114.395 64.5406 114.62 63.2297 114.479 64.3432C114.338 65.0339 114.324 64.8225 114.24 65.6541C114.198 65.7668 114.212 65.5836 114.24 65.2594C114.156 65.9923 113.959 67.1904 113.944 67.571C113.86 67.9374 113.776 68.5435 113.691 69.065C113.579 69.5725 113.452 69.9812 113.424 69.9389C113.382 70.1645 113.171 71.2075 113.002 71.8699C113.213 70.6437 112.369 74.3225 112.34 73.9842C112.242 74.9145 111.285 77.1133 110.793 78.6637C110.821 78.5791 110.863 78.3959 110.919 78.2691C110.596 79.1288 110.483 79.3685 110.272 79.9041C110.286 80.045 109.695 81.3277 109.4 82.0465C108.851 83.0191 109.611 81.3981 109.4 81.68C109.484 81.6518 108.612 83.456 108.823 83.1318C108.415 83.8788 108.485 83.7943 108.232 84.1607C108.232 84.3299 107.922 84.9078 107.585 85.528C106.895 86.571 107.345 85.7535 106.656 86.9374C106.29 87.4731 106.895 86.43 106.895 86.43H106.782ZM83.7769 108.559C84.0301 108.432 84.2412 108.334 84.3819 108.263C84.2553 108.319 84.0864 108.404 83.7769 108.559ZM81.3285 109.743C81.624 109.602 82.0039 109.419 82.3979 109.236C82.4964 109.207 82.3979 109.278 82.1587 109.391C82.2854 109.32 81.7085 109.588 81.3285 109.743ZM86.6191 107.403C86.2533 107.629 86.1267 107.699 86.0704 107.728C86.2392 107.615 86.4503 107.488 86.7176 107.333L86.7598 107.305C86.7598 107.305 86.6895 107.361 86.6332 107.417L86.6191 107.403Z"></path>
<path fill="white" d="M87.2527 106.938C87.2527 106.938 87.3371 106.882 87.4074 106.839C87.323 106.882 87.2527 106.924 87.1823 106.966C87.1401 106.994 87.0979 107.037 87.0557 107.065C87.126 107.023 87.1964 106.98 87.2527 106.938Z"></path>
<path fill="white" d="M91.122 11.0218L91.0798 10.9795C91.0798 10.9795 91.1502 11.0359 91.1783 11.0641C91.1502 11.0359 91.1502 11.0359 91.1361 11.0218H91.122Z"></path>
<path fill="white" d="M44.6604 113.379V113.393L44.8996 113.45L44.6604 113.379Z"></path>
<path fill="white" d="M101.914 21.4102C101.914 21.4102 101.971 21.4947 102.027 21.5793C102.027 21.5652 101.971 21.4947 101.914 21.4102Z"></path>
<path fill="white" d="M105.685 26.6958L106.15 27.4851C105.953 27.1327 105.812 26.8931 105.685 26.6958Z"></path>
<path fill="white" d="M108.176 30.9946C108.176 30.9946 108.232 31.0651 108.232 31.0792L108.176 30.9946Z"></path>
<path fill="white" d="M40.8473 2.86084C40.8473 2.86084 40.7207 2.88903 40.6644 2.91722C40.2423 3.05817 40.5237 2.9595 40.8473 2.86084Z"></path>
<path fill="white" d="M64.1344 0.662206C63.8812 0.634017 63.6419 0.605827 63.3887 0.577637C63.7967 0.648111 64.1204 0.690396 64.1344 0.662206Z"></path>
<path fill="white" d="M18.4045 16.04L18.2778 16.1528L18.4045 16.04Z"></path>
<path fill="white" d="M62.291 0.521484C62.7131 0.549674 63.0649 0.563769 63.3885 0.577864C63.0508 0.563769 62.6428 0.535579 62.291 0.521484Z"></path>
<path fill="white" d="M114.409 51.5591L114.437 51.7987C114.437 51.7987 114.437 51.7987 114.437 51.8269L114.395 51.5591H114.409Z"></path>
<path fill="white" d="M114.508 52.6444L114.465 52.0806C114.465 52.2779 114.479 52.5175 114.508 52.6444Z"></path>
<path fill="white" d="M113.326 45.047L113.283 44.9766C113.283 44.9766 113.312 45.0329 113.326 45.047Z"></path>
<path fill="white" d="M112.819 43.1021C112.932 43.5672 113.072 44.2719 113.255 44.9203L113.283 44.9767C113.171 44.6807 112.96 43.539 112.819 43.1021Z"></path>
<path fill="white" d="M110.399 35.082C110.624 35.6035 110.779 36.1391 110.976 36.6606C110.891 36.3787 110.793 35.9981 111.06 36.717C110.385 34.7014 111.187 37.1398 110.399 35.0679V35.082Z"></path>
<path fill="white" d="M108.162 30.3462C108.57 31.1637 108.19 30.318 108.218 30.3462C107.937 29.8528 107.852 29.726 108.162 30.3462Z"></path>
<path fill="white" d="M80.9628 5.0881H81.0613C80.4282 4.7921 81.0613 5.0881 80.9628 5.0881Z"></path>
<path fill="white" d="M74.1386 2.77637C74.3496 2.84684 74.5748 2.90322 74.7718 3.00189L75.0813 3.07236C74.7718 2.9596 74.4481 2.84684 74.1245 2.77637H74.1386Z"></path>
<path fill="white" d="M70.1003 1.36676L70.3958 1.43724L69.2561 1.16943L70.1003 1.36676Z"></path>
<path fill="white" d="M13.0154 21.0435C13.0154 21.0435 13.1279 20.9589 13.1983 20.9166C13.5079 20.5642 13.5219 20.4374 13.0154 21.0435Z"></path>
<path fill="white" d="M1.28035 45.5688C1.15371 45.8507 1.02708 46.6119 0.984863 47.0911C1.08336 46.485 1.19592 45.8789 1.28035 45.5688Z"></path>
<path fill="white" d="M37.5969 111.758L37.0623 111.589L38.0472 111.928L37.5969 111.758Z"></path>
<path fill="#E70000" d="M107.275 56.8867C107.275 83.9913 85.3389 105.951 58.281 105.951C31.223 105.951 9.30078 83.9913 9.30078 56.8867C9.30078 29.7821 31.223 7.80811 58.281 7.80811C85.3389 7.80811 107.275 29.7821 107.275 56.8867Z"></path>
<path fill="#E70000" d="M104.714 56.8871C105.038 57.0562 105.798 56.9575 105.629 56.5206L104.349 56.2246L104.729 56.873L104.714 56.8871Z"></path>
<path fill="#E70000" d="M106.923 53.8988C106.276 53.4055 105.179 52.9122 104.025 53.335C105.263 53.7438 104.757 53.8847 106.234 54.3498C106.403 54.7868 105.868 55.1251 105.39 55.0687C105.727 55.2096 105.151 55.7452 105.953 55.9567C106.909 55.3788 106.909 54.6176 106.065 53.9129C106.332 53.7297 106.67 53.8706 106.909 53.8988H106.923Z"></path>
<path fill="#E70000" d="M87.689 15.4902L87.8297 15.7862C87.8156 15.6735 87.7593 15.5748 87.689 15.4902Z"></path>
<path fill="#E70000" d="M61.6862 5.51103C61.8973 5.49694 62.0098 5.37008 62.0239 5.25732C61.8128 5.3278 61.644 5.39827 61.6862 5.51103Z"></path>
<path fill="#E70000" d="M56.8176 4.00254C56.9302 4.03073 57.0146 4.04483 57.1131 4.07302C57.0005 3.96026 56.888 3.90388 56.8176 4.00254Z"></path>
<path fill="#E70000" d="M87.6888 15.4901L87.3089 14.7148C87.0275 15.0249 87.4496 15.1941 87.6888 15.4901Z"></path>
<path fill="#E70000" d="M103.209 48.5004C103.293 48.6273 103.42 48.7259 103.589 48.8105C103.519 48.6978 103.462 48.5991 103.406 48.4863C103.336 48.4863 103.279 48.4863 103.209 48.5004Z"></path>
<path fill="#E70000" d="M97.5664 23.1293L97.7212 23.2985C97.876 23.2562 98.0589 23.1857 98.2418 23.1152H97.5664V23.1293Z"></path>
<path fill="#E70000" d="M103.307 30.924C103.237 30.7126 102.266 31.1918 101.816 31.3609C102.266 31.2341 102.534 31.2764 102.702 31.3891C102.885 31.2905 103.082 31.1495 103.307 30.924Z"></path>
<path fill="#E70000" d="M107.064 45.6533L107.275 45.8788C107.275 45.8788 107.149 45.7238 107.064 45.6533Z"></path>
<path fill="#E70000" d="M92.8669 18.0272C92.9654 17.9003 93.0358 17.7735 93.0499 17.6748C92.9654 17.7735 92.8951 17.9003 92.8669 18.0272Z"></path>
<path fill="#E70000" d="M101.169 66.3444C101.239 66.3726 101.295 66.3726 101.352 66.3867C101.253 66.3163 101.183 66.2881 101.169 66.3444Z"></path>
<path fill="#E70000" d="M107.543 56.8871L107.599 57.0281C107.796 57.0422 108.007 57.0563 108.204 57.0563L107.557 56.873L107.543 56.8871Z"></path>
<path fill="#E70000" d="M47.4888 3.6362C47.4888 3.6362 47.5169 3.6362 47.531 3.6362C47.7561 3.48116 47.6154 3.52344 47.4888 3.6362Z"></path>
<path fill="#E70000" d="M6.0647 68.2052C6.76823 67.0917 7.65469 69.4174 8.34415 67.8246C7.96424 68.0501 6.38832 66.9225 6.0647 68.2052Z"></path>
<path fill="#E70000" d="M103.307 48.2469C103.279 48.1341 103.251 48.0214 103.251 47.8945C103.251 48.0637 103.251 48.1623 103.307 48.2469Z"></path>
<path fill="#E70000" d="M8.34399 67.8245L8.41435 67.6694C8.38621 67.7399 8.37214 67.7681 8.34399 67.8245Z"></path>
<path fill="#E70000" d="M28.1135 12.5161C28.2542 12.643 28.409 12.7134 28.5497 12.7839C28.4794 12.6993 28.3668 12.6148 28.1135 12.5161Z"></path>
<path fill="#E70000" d="M42.8033 7.0752H42.3953C42.5641 7.10339 42.6908 7.10339 42.8033 7.0752Z"></path>
<path fill="#E70000" d="M22.7665 18.8164C22.5554 18.901 22.4007 18.8305 22.2881 19.1265C22.3444 19.1547 22.3866 19.1547 22.4429 19.1688C22.4147 18.9996 22.471 18.8446 22.7665 18.8164Z"></path>
<path fill="#E70000" d="M17.1665 24.9759C17.265 24.99 17.3354 24.9759 17.4338 24.9759C17.462 24.9055 17.5042 24.8068 17.5464 24.7363L17.1665 24.9759Z"></path>
<path fill="#E70000" d="M92.1775 85.6546C92.5152 85.7392 92.8388 85.8802 93.1484 86.0352C92.487 85.6264 92.9795 84.6821 92.1775 85.6546Z"></path>
<path fill="#E70000" d="M103.8 48.3876C103.533 48.3876 103.378 48.3594 103.307 48.2607C103.336 48.3453 103.364 48.4158 103.406 48.4863C103.561 48.4863 103.715 48.4581 103.8 48.3876Z"></path>
<path fill="#E70000" d="M28.3527 25.2295L27.4099 25.8638C27.7195 25.7369 28.0572 25.4973 28.3527 25.2295Z"></path>
<path fill="#E70000" d="M45.9551 99.7922L46.2365 99.7358C46.1521 99.6935 46.0536 99.6935 45.9551 99.7922Z"></path>
<path fill="#E70000" d="M25.3135 28.401C24.8914 28.3024 24.5818 28.3165 24.3145 28.3869C24.3426 28.4715 24.3707 28.5561 24.4411 28.6688L25.3135 28.4151V28.401Z"></path>
<path fill="#E70000" d="M95.2871 78.4945C94.7242 79.3684 96.2157 79.6221 96.7926 80.2423C96.4549 81.5672 95.5966 80.2 94.7664 80.1859C94.7242 80.6228 94.8931 81.1443 95.0338 81.6377C95.1464 82.1028 95.2167 82.5257 95.0057 82.7512C94.7946 82.6525 94.6539 82.6948 94.485 82.4129C94.879 83.7519 93.0358 84.4708 93.5142 86.1481C93.3735 86.1199 93.2468 86.0776 93.1483 86.0212C93.8096 86.3595 94.3725 86.7964 94.7524 87.1488C94.4287 87.5435 94.7805 88.4455 93.9503 87.9804C94.1896 87.769 93.9222 87.5012 93.7956 87.2052L93.7393 87.8676C92.4166 87.3461 93.88 87.0219 93.1343 86.3877C92.7825 87.4025 92.7825 89.0516 91.9664 89.3899C90.9251 88.6006 92.881 87.7267 91.3332 87.7126L92.5011 87.1629C90.3623 86.4722 93.092 86.726 90.8829 85.8803C89.5744 86.726 90.2638 87.6421 88.8849 88.4174C89.1382 89.1644 89.7151 89.108 89.9543 89.8691C89.1522 92.3639 86.4788 88.6006 86.4366 90.9826C86.6758 91.9129 87.5482 93.2942 86.0707 93.3224L85.4939 91.9129C84.2275 92.6881 86.0707 94.1258 84.2134 94.2809C84.1149 93.6325 84.8888 93.1674 84.5933 93.1674C83.1018 92.8291 84.5089 94.2809 83.8616 94.7601L83.0033 93.7734C82.3842 94.2668 81.8214 94.9433 81.2304 95.6481C80.6395 96.3387 80.0344 97.1139 79.2605 97.5791C79.1761 97.1844 79.2605 96.7052 78.6977 96.5219C77.8394 97.2831 76.7419 97.7905 75.6021 98.0865C74.4061 98.2838 73.182 98.312 72.0844 98.312L71.6764 99.6651C71.4935 99.7215 71.1839 99.2705 71.3246 99.0168C70.396 98.8053 71.4935 99.7074 71.2261 100.229C70.7759 100.426 70.4382 99.7638 70.6352 99.3691C70.0583 100.003 69.1718 100.765 68.1728 101.286C67.1878 101.836 66.0622 101.864 65.2039 101.427L65.4571 101.046C64.2048 100.779 64.4018 103.541 63.1214 102.681L63.3184 102.442C61.9535 102.343 60.5605 102.484 59.2238 102.555C58.8861 102.555 58.5625 102.583 58.2389 102.555C57.9152 102.512 57.6057 102.442 57.3102 102.343C56.7052 102.16 56.1564 101.878 55.678 101.427C55.4388 102.23 54.7915 102.019 54.1724 101.878C53.5533 101.779 52.9623 101.596 52.7372 102.724C51.3583 101.371 51.8508 101.032 49.909 99.9893C49.3743 99.8202 48.8115 101.201 48.0657 101.258L48.319 100.102L47.1089 101.075L46.9682 99.5806L46.2647 99.7074C46.4898 99.8343 46.6587 100.356 46.532 100.68C45.9551 100.807 45.3923 100.454 45.0124 100.003C44.6325 99.5242 44.4496 98.904 44.534 98.6221L41.9309 98.7349C42.156 98.312 42.5922 98.2979 43.0003 98.1147C41.3681 98.8053 43.2395 96.8743 41.748 97.5086C41.7902 97.8046 41.3962 98.1288 41.2836 98.3402C40.9882 97.5086 39.8484 96.8602 38.8072 96.7193L39.3278 96.0709C37.8082 95.2111 35.8946 94.6614 34.192 93.6184C34.586 94.309 33.6995 95.4225 33.1086 95.2111L33.587 94.0412C32.8271 94.4782 33.8684 94.7601 32.6583 95.1265C32.1095 94.5487 33.0523 93.6466 33.6151 93.5761L32.6442 93.3929C32.8131 93.0546 33.0945 93.0264 33.4181 92.6599C32.6583 93.0687 32.9397 90.7289 31.7015 91.4901L31.8844 91.1659C31.4904 90.8699 31.1387 90.6443 30.801 90.447C30.4773 90.2356 30.1959 90.0383 29.9145 89.855C29.3517 89.4886 28.8029 89.1644 28.1838 88.6429C27.424 89.404 27.1144 88.7979 26.1295 89.0939C25.5385 87.924 25.2712 86.3736 24.2299 85.3728C23.1606 84.9359 23.3294 85.7252 22.5555 85.7675C23.2731 85.0768 22.3304 83.9774 23.3435 84.1466C22.7666 83.4982 22.3867 83.0895 21.9223 82.6666C21.6831 82.4552 21.4299 82.2438 21.0922 82.0041C20.7967 81.7363 20.4449 81.4403 19.9806 81.0739C19.7695 81.4967 19.7695 81.835 19.4037 81.8914C19.0519 81.6236 19.263 80.8624 19.6992 80.6651L19.8399 80.7074C18.5594 80.0168 18.3624 78.4099 18.4047 76.8595C18.4047 76.0984 18.3906 75.3795 18.2077 74.7875C18.1232 74.4915 17.9825 74.2378 17.7855 74.0123C17.6167 73.7868 17.3775 73.5895 17.0679 73.4626L17.1946 73.5331L15.492 71.9826C15.3232 71.0383 16.3785 72.2645 16.7162 71.4188C16.1393 71.0383 15.7875 70.6295 15.5624 70.2208C15.3794 69.7979 15.3232 69.3751 15.281 68.9522C15.1965 68.1206 15.1965 67.3313 14.4367 66.5702C15.6186 65.5835 15.492 64.3995 15.084 63.1592C14.901 62.539 14.6618 61.9047 14.6056 61.2846C14.6056 60.6644 14.7181 60.0865 15.1543 59.5932L14.4789 59.7482C13.7895 59.2972 14.8448 59.1421 14.9714 58.7897C14.4508 58.8602 14.3804 59.3395 14.0005 59.0576C13.3814 56.9997 13.8598 54.8291 14.3664 52.7289C14.6618 51.6859 15.1402 50.6711 15.5202 49.6703L16.0971 48.1903C16.3363 47.7111 16.5614 47.2319 16.7584 46.7527C17.3071 45.3714 13.5643 45.0049 15.6186 43.539L16.688 44.4411C16.3785 42.7497 17.0398 41.2556 17.5745 39.7898C18.2921 38.3803 19.0097 36.999 19.1504 35.3217C19.3192 35.6176 19.6288 35.8009 19.5022 36.0687C20.5997 35.9418 20.7545 34.0813 20.1213 33.6584C20.4449 33.292 20.7545 33.9122 21.2329 33.8699C22.0208 33.6303 21.064 31.8261 22.0349 32.0798C22.1897 32.1221 22.1756 32.3899 22.1615 32.5309C22.0349 31.9389 23.4138 31.0509 22.3163 30.7408C23.4138 30.1347 23.2309 28.6547 24.3284 28.3587C23.836 27.1325 26.0732 27.2875 24.9616 26.019C26.1998 27.2593 27.2833 25.4693 27.3114 24.4263C27.4943 24.9619 28.1557 24.3981 28.4371 25.1169C29.028 24.5531 29.3657 23.8061 28.6622 23.2282C29.9145 23.496 30.1678 22.6503 30.5336 21.9878C30.8713 21.3113 31.209 20.7193 32.3347 21.5368C32.6864 20.9871 33.0382 20.4515 33.404 19.93C33.798 19.4648 34.2061 18.9997 34.6282 18.5628C35.4724 17.7171 36.2745 16.7727 37.2313 16.1525C37.5971 16.9559 37.0343 17.2096 36.5559 17.5902C36.0775 17.9426 35.6131 18.309 36.1197 19.0561C36.4715 18.6332 36.7529 18.1963 37.0202 17.7593C37.3016 17.3506 37.569 16.97 37.8504 16.6036C38.4132 15.8706 39.0745 15.2645 40.1298 14.9826C40.7208 14.9544 40.1439 15.8142 40.1017 16.1525C40.8897 15.3209 41.9028 15.0813 42.8314 14.7289C43.7742 14.4329 44.6325 13.9819 45.4345 13.3335C45.4767 13.4886 45.3219 13.7141 45.1812 13.8832C45.533 13.7423 46.0818 13.9114 45.8285 13.1644L45.533 13.4604C44.6043 12.516 46.3491 10.7823 46.2928 10.1763C46.2084 12.5301 48.319 10.2326 47.9672 13.2771C48.1642 13.0657 48.3894 12.6288 48.2205 12.1354C48.6145 12.1918 48.7833 12.4596 48.5582 13.1362C49.7542 12.3751 49.1492 11.7267 50.3593 11.5294C50.4155 11.9099 50.2045 12.0932 50.1623 12.5442C50.6266 11.7267 51.1472 10.8951 52.2307 11.0501C52.2025 11.2898 52.3573 11.5717 52.0477 11.6139C53.7503 11.1629 54.9322 9.37284 56.9866 9.95073C56.4519 11.6421 57.676 10.4582 57.7886 11.8817C58.1263 11.7126 58.4781 11.5857 58.8298 11.4589L58.4077 10.74C59.3223 10.8105 60.1947 9.80978 60.9827 10.3172L60.265 10.8669L62.0239 10.6837L61.0671 10.0917C62.0802 9.40103 61.0671 8.27343 62.3334 8.73856C62.052 8.87951 63.3184 8.78085 63.7124 9.73931C64.233 9.35874 64.7817 8.96408 65.4431 9.41512C65.5556 9.89435 65.0632 10.9656 65.1335 11.2757C65.7667 10.1763 67.3567 11.2334 68.1728 10.1481C67.9195 10.3877 67.7647 11.1206 67.7929 11.2898L68.3698 10.43C68.7356 10.8387 68.7638 11.0079 68.5527 11.5717C69.7769 12.0791 68.5527 9.69702 69.9035 10.8528C69.7628 10.8951 69.7909 11.0501 69.4954 11.1347C70.9025 11.9099 72.6332 11.2616 73.8433 12.2764C73.7589 13.7846 72.5488 12.1777 72.6191 13.5027C73.6041 13.7282 74.7438 13.6859 75.8695 13.7141C76.9951 13.7564 78.0504 14.0383 78.8947 14.6021L78.6273 14.292C79.7811 12.6006 79.556 15.8283 80.8787 15.4478C80.5972 15.4478 80.0626 16.2794 80.2314 16.1102C81.2164 17.111 82.8626 17.0828 84.9873 17.7171L84.4808 17.999C84.8607 18.8728 86.0285 19.493 86.5773 20.2119C87.0979 19.9582 87.4497 20.3246 87.6889 19.5494C87.7874 20.5219 88.111 21.1562 88.5472 21.6214C88.9975 22.0724 89.6166 22.3402 90.2357 22.5939C90.8407 22.8617 91.5161 23.0731 91.9523 23.5101C92.3885 23.947 92.6699 24.5249 92.6136 25.3847C92.4166 25.1733 91.8257 25.1874 91.9805 25.3565L93.6971 26.5405C94.2599 25.8498 93.9222 25.9908 94.1473 25.2156C94.7243 25.0605 95.4278 25.2438 95.7936 25.6384C94.6961 25.3142 94.7383 26.5405 94.5695 27.1748C94.7383 26.9492 95.0479 26.8647 95.2449 26.6674C94.668 28.5279 96.7504 25.6948 96.8208 27.5694L96.3987 27.7808C96.9193 28.0768 97.7354 28.1332 97.9886 28.7111C97.2992 29.5004 97.2429 28.4997 96.5394 28.9789C97.0741 29.5991 99.1706 29.1903 98.6922 30.4448C98.2701 30.2898 98.0027 29.8528 97.5384 29.726C97.0459 31.065 97.2851 30.9945 97.454 31.6147V31.5442L97.7072 33.0242L97.8057 32.559C99.2128 32.3053 99.6068 32.7141 99.9163 33.2074C100.24 33.7007 100.437 34.2927 101.52 34.5464C99.452 34.0531 100.578 34.786 99.4942 35.223C99.3676 35.6881 99.2691 36.3365 98.9173 36.3506C100.043 36.5197 98.7063 37.6332 100.353 37.8728C100.029 38.0561 100.62 38.5071 99.6912 38.7608C100.324 39.3951 100.198 38.3239 100.662 38.197C101.563 38.5212 101.436 39.4233 101.422 40.3254C101.408 41.2415 101.45 42.1436 102.618 42.7638C103.758 44.1169 105.01 44.0887 106.037 45.4841C105.587 46.1325 104.602 45.3855 104.602 45.3855C104.264 46.3439 104.574 46.8936 105.108 47.5984C104.771 47.4997 104.517 47.7252 104.138 48.0353C104.32 48.6273 105.545 48.2044 105.122 49.1347C104.686 49.0642 104.011 48.9938 103.547 48.7682C103.997 49.4166 104.799 50.0368 105.249 50.7556C104.63 51.0375 104.194 50.4314 103.744 50.22C104.152 51.0093 104.686 52.3061 105.671 52.5034L106.009 51.9114C106.079 52.2215 105.151 52.1651 104.926 51.9537C104.011 51.3194 105.122 50.8684 105.488 50.7697L105.812 51.2912C107.894 50.4455 105.122 49.1065 105.08 48.0212L106.727 48.2044L105.249 47.3024C105.601 46.9782 106.459 46.6258 106.783 47.1473C107.402 46.1748 106.065 46.5553 106.755 45.6674C106.867 45.5546 106.952 45.5828 107.036 45.6392L106.375 44.9626C106.741 45.0331 107.43 44.5538 107.332 45.1036C107.852 43.4263 105.587 43.1162 106.614 42.2423L106.741 42.3409C105.629 40.5509 105.573 42.4819 103.786 41.4952C104.588 40.8751 105.376 40.2408 106.164 39.5783L104.996 39.7898C104.968 39.5783 104.897 39.1555 105.362 39.0709C104.349 38.6199 104.926 39.381 104.067 39.226C104.391 38.5635 104.067 37.9433 103.8 37.4218C103.518 36.9003 103.378 36.4211 104.166 35.9277C103.195 35.97 103.955 37.0835 102.927 36.3647C104.616 35.2371 102.083 35.4062 102.519 34.18C103.561 33.9544 103.462 35.0116 103.884 33.7571C102.984 33.8981 102.871 33.447 102.899 32.8832C102.927 32.3194 103.026 31.6711 102.674 31.4033C101.45 32.0657 101.281 30.2193 100.198 29.3454C100.69 29.1199 99.4098 26.8929 99.0439 25.582L99.255 25.4693C97.9746 26.1458 97.4821 24.9196 96.6238 24.4403C97.2851 23.9188 97.665 23.8202 98.2841 23.9752C98.1012 23.7497 97.8902 23.5383 97.6932 23.3128C97.2148 23.4537 96.8489 23.3973 96.3424 23.0872L97.2851 22.5516C96.4127 21.7059 94.8227 21.6073 94.2318 20.0709C93.5001 20.7334 93.1624 22.7912 91.5865 22.2415C91.9101 21.8187 92.5011 21.128 92.9513 21.2408C92.8106 21.1985 92.29 21.2408 92.2619 20.9025L93.3453 20.677C93.1202 19.9441 92.5714 20.973 92.2337 20.5642C92.7543 20.0145 92.3041 19.9018 92.7684 19.5071C92.9232 19.5494 92.9091 20.0568 93.2609 19.9722C92.8951 19.4648 92.6558 18.6332 92.8528 18.0271C92.6136 18.3795 92.1774 18.7883 91.7694 18.5628C90.8689 17.8157 92.0649 17.6043 91.8116 16.8432C91.2769 17.0405 91.0096 16.1666 90.292 17.0405C90.0246 16.8291 90.292 16.378 90.3764 16.0538C89.5744 16.082 87.9984 14.447 87.8437 15.8424L87.914 15.9975C87.914 15.9975 87.8437 15.9834 87.8015 15.9834C87.2386 15.9129 86.7884 15.7015 86.3944 15.4055C85.9863 15.1236 85.5923 14.7853 85.2406 14.4188C84.5089 13.6859 83.7913 12.8825 82.8345 12.5865L83.0174 12.2623C81.8073 12.0368 80.5691 11.332 79.4857 11.6844C79.1902 11.5435 79.0495 10.7119 79.3731 10.3595C78.4303 10.2467 78.2193 10.5286 77.2343 9.52788C78.3318 9.23189 77.164 8.87952 78.2896 9.40103C77.3188 8.69628 77.2625 8.01972 75.7147 8.56943C76.4604 7.8083 75.2785 7.10355 74.6594 7.18812L75.2222 8.13248C74.589 8.04791 74.0966 7.78011 73.59 7.5123L74.2654 6.3988C73.3086 5.2853 72.0141 5.67996 70.8884 5.91957C69.7487 6.20147 68.806 6.28604 68.1024 4.90474C67.3004 5.67996 69.2984 5.72224 68.5105 6.66661C67.4693 6.32833 66.6109 4.34094 66.2592 4.28456C64.7958 3.36839 64.5848 5.87729 63.0651 5.24302C63.234 5.70815 63.2903 6.92032 62.1083 7.30088C61.0671 7.07536 60.8842 5.32759 61.6158 5.0034C61.8832 4.97521 62.0098 5.13026 61.9817 5.2853C62.3475 5.14435 62.84 4.97521 62.4319 4.4537L62.249 4.90474C61.7284 4.41141 60.1665 4.38322 60.5746 3.65029C59.7022 4.04495 60.1806 4.38322 60.7997 4.65103C59.3786 3.94628 58.5484 4.4396 57.0569 4.11542C57.2961 4.35503 57.5213 4.87655 57.2961 4.89064C55.1152 4.4396 56.3675 5.80681 54.9463 6.07462C54.0739 5.42625 55.1292 4.41141 53.7081 5.05978C52.7654 4.63693 53.3985 3.86171 53.7503 3.48115C53.089 3.93219 52.4558 3.86171 51.8508 3.69257C51.2598 3.50934 50.697 3.18515 50.2889 3.15696L50.9784 2.67773C50.5703 2.95963 50.2045 3.00192 49.8386 3.0583L50.3874 3.8899C49.9371 3.79124 49.5854 3.84762 49.5291 3.46705C49.1914 4.12951 50.0919 4.91883 49.3884 5.8491C48.7552 5.49673 47.8265 6.56794 47.4044 5.46854C49.2195 5.55311 46.9541 4.29865 48.4175 3.86171C48.1502 4.04495 47.7984 4.10132 47.3341 4.01676C47.2496 3.904 47.3341 3.74895 47.4466 3.66438C45.5189 3.01601 46.9541 5.18664 45.2516 5.59539C45.3079 4.87655 44.534 4.4396 44.2807 4.66512C44.9842 4.49598 44.8998 5.67996 44.4073 6.34242C43.1832 6.1169 43.338 7.03308 42.7611 7.11765L43.4787 7.18812C43.4505 7.89287 42.9018 7.93515 42.2545 8.42848C42.0294 7.94925 42.7892 7.85058 42.4656 7.70963C42.0575 9.13322 40.2424 7.20222 39.3841 8.3721C38.6946 8.13248 38.8635 7.20222 38.2866 7.07536C37.3298 8.34391 36.5418 6.80756 35.5006 8.0902C36.2604 8.73856 36.2182 8.51305 35.6976 9.7534L37.5408 8.14658L36.7247 10.0071C37.3579 9.72521 37.8082 8.82313 38.2725 8.83723C37.9067 9.78159 37.9067 9.57017 38.4836 10.1199C37.0765 9.27417 37.1469 11.6562 35.782 11.2757L34.8111 9.23189C33.8262 9.16141 33.2493 9.72521 32.7146 10.43C32.1799 11.1629 31.6452 11.9522 30.5618 12.2764L31.3638 12.2482C31.5889 13.1644 30.2944 13.0516 29.9004 13.7141C29.5346 13.0516 29.014 13.0375 28.4934 12.812C28.8451 13.249 27.1707 13.7423 27.9024 15.0813L26.5375 14.8558C24.8631 15.6169 26.242 17.703 24.9053 18.6191C24.7365 17.6607 23.8219 17.7734 24.2721 16.5613C23.85 16.9418 23.3716 17.1814 23.7234 17.5761C23.1606 17.4492 23.2591 19.3803 22.3867 19.197C22.4429 19.5917 22.9354 20.226 22.4429 20.5924C22.2882 20.5219 22.1756 20.3246 22.1756 20.3246C22.4148 20.5783 21.852 21.3676 22.8229 21.565C21.4299 21.3395 20.6419 22.2697 19.9384 23.1718C19.5866 23.6228 19.2348 24.088 18.8268 24.4122C18.4469 24.7786 17.9966 25.0041 17.3775 24.99C16.8569 26.1317 16.1533 27.4144 15.5905 28.3447C15.4357 28.1614 15.281 28.1332 15.4498 27.9923C14.0709 28.9084 16.7865 29.9656 15.2528 30.9804C13.7472 31.0932 15.1543 29.8669 14.4789 30.0924C12.2417 29.0212 13.6487 32.0234 11.8618 32.3617V32.0375C10.708 32.4745 11.7351 34.4619 10.9472 35.674C10.9472 35.674 10.7783 35.519 10.6095 35.519C11.2708 36.9285 11.1019 38.8313 10.9472 40.2126C10.1733 39.4938 10.6798 39.4515 9.65266 39.3669C9.56824 40.0012 11.2145 39.7475 11.0597 40.9737C10.4266 41.1711 9.65266 41.8476 8.63957 41.6785C8.70993 41.2838 8.8647 40.9174 8.9632 40.5368C7.42949 40.6777 8.51294 42.0168 8.1471 42.5524L7.59834 42.3128C7.31692 44.1592 8.78028 44.5398 8.20338 46.3721L8.69585 46.2734C9.92001 47.5702 7.7109 46.9782 8.6255 48.2044L7.09179 48.2608C7.35914 49.036 8.13303 50.8966 8.30187 52.1228C7.21843 51.3335 6.92294 49.8113 6.38826 48.7823C6.27569 49.4871 6.13498 51.1785 6.82445 51.6154C6.72595 51.3194 6.40233 50.9248 6.68374 50.6852C7.69683 51.6718 8.27373 52.7994 8.16117 54.1525C6.69781 53.9411 6.47268 54.8432 6.3179 55.9003C6.10684 56.9574 6.21941 58.1696 5.09375 58.7334C5.71286 59.9737 5.62844 61.2 5.5018 62.5249C5.45959 63.8357 5.33295 65.2311 5.64251 66.6829C7.72498 65.2452 5.8395 67.5145 8.10488 66.8943C8.35816 67.5145 8.41444 67.7541 8.27373 67.8528L7.41542 70.1362C6.88073 70.7846 6.75409 69.6429 6.26162 69.8261C6.45861 71.3343 5.45959 70.6859 5.10782 71.8417C5.86764 71.4188 6.40233 72.0249 6.30383 72.9693L7.03551 71.4893C7.89382 72.335 7.54206 72.8988 7.24657 73.4767C6.93701 74.0546 6.62746 74.6748 7.5702 75.4641L6.64153 75.0694C7.03551 75.5205 7.38728 76.4789 7.90789 77.381C8.3863 78.2831 9.24461 79.016 10.2999 79.1147C10.1311 79.3966 9.66673 79.904 9.3009 79.5375C9.76523 80.7779 10.7783 81.9196 11.8196 82.8921C12.8749 83.8788 13.7613 84.809 13.8035 85.9789L13.2266 86.1199C13.6347 86.4441 14.5352 86.2608 14.4367 87.0501C14.2256 87.1629 13.8457 87.2193 13.9583 87.4166C14.2819 87.5153 15.5483 87.8676 15.6609 88.5724L14.8166 88.516C15.281 89.7705 16.1815 90.3202 17.1524 90.7148C18.1654 91.0672 19.263 91.2504 20.0931 91.8706C18.8549 92.9841 19.7554 94.901 20.3323 95.7749L20.1354 95.9159C21.1766 97.0153 22.3585 97.6214 23.5686 98.1006C24.7787 98.5798 26.1295 98.7912 27.3818 99.3409C27.4521 99.9611 27.7476 100.525 28.1697 101.061C28.6059 101.596 29.225 102.019 29.8723 102.47C31.1809 103.358 32.5879 104.288 33.6292 105.289C33.39 104.838 34.2905 104.147 34.797 104.204C35.2192 104.796 36.8654 103.894 36.1197 105.261L35.9227 105.134C35.7257 106.713 37.0906 106.98 38.0614 107.333L38.976 105.515C39.6796 107.319 41.4525 107.77 43.0706 107.897C44.7169 108.009 46.1521 108.009 46.5883 109.489C47.32 109.179 48.1079 109.306 48.8396 108.897L48.6145 109.969C50.3593 110.49 51.2457 110.871 53.5111 110.786L52.9764 111.533C54.2709 111.674 54.8197 108.489 55.9172 108.489L56.1845 110.124C58.3233 110.307 60.6309 111.477 62.6993 109.926C62.6852 110.166 62.6571 110.631 62.3053 110.716C63.3325 110.8 66.4421 111.336 65.7526 109.193C65.9778 110.617 68.018 109.01 69.003 108.164L69.0452 109.25C69.7206 107.671 69.6643 107.305 70.8603 106.6C71.198 106.656 71.3387 107.361 70.8603 107.206C72.0422 107.488 71.395 106.022 72.788 106.247L72.5066 107.023C73.59 106.811 73.4212 106.515 73.7307 105.543C74.2373 104.908 75.7288 105.106 76.2353 105.951C76.179 105.345 76.4464 104.401 77.1499 104.443C77.361 104.753 77.2343 105.049 77.1499 105.19C78.1489 105.233 78.6695 104.683 79.1057 104.147C79.5419 103.64 79.9218 103.203 80.7098 103.4C80.8927 103.71 81.0334 103.837 81.1741 103.88C79.8374 104.5 78.754 104.951 78.8243 104.838C79.2042 105.754 80.3862 105.374 80.0485 107.051C80.6676 105.937 81.4415 103.767 82.6938 103.668C82.7923 103.724 82.8767 103.781 82.9893 103.908L82.933 104.063C83.2285 104.035 83.3973 103.851 83.5239 103.598C83.9179 103.541 84.1853 103.527 84.4948 103.358C85.0154 103.992 85.916 103.02 86.4507 102.738C85.8456 101.85 86.5914 101.582 85.5079 101.216C85.6346 101.23 85.4798 101.385 85.1702 101.624C85.1139 101.695 85.0295 101.765 85.0154 101.85C85.0154 101.822 85.0154 101.779 85.0014 101.751C84.6918 101.977 84.2697 102.259 83.7772 102.583C83.9179 101.864 84.0868 101.216 84.9451 101.399C84.8466 100.652 84.7481 99.8765 84.72 99.496C86.1833 100.384 87.9703 100.229 88.6598 100.807C89.7573 99.1859 91.9664 97.9455 91.4176 95.5917C91.6146 95.0561 92.2197 95.6481 92.5714 95.7467C92.487 96.0991 92.2056 96.3105 92.2759 96.6347C92.6981 95.5494 94.3866 94.4359 93.5845 93.266C94.9494 92.8573 93.9926 94.7037 95.076 93.3083L95.2167 93.7875C97.2007 93.2801 97.5384 91.5605 97.8761 89.9678C98.1575 88.2905 98.3686 86.7119 100.704 86.0212C100.395 86.134 100.254 86.1903 100.029 86.0917C100.972 85.4292 101.534 84.4708 102.111 83.5264C102.646 82.5538 103.195 81.5813 103.547 80.5101C103.941 79.467 104.349 78.4381 104.883 77.4797C105.46 76.5353 105.939 75.5628 106.825 74.7311C107.627 73.7022 106.825 73.2794 106.431 72.3773L107.627 72.476C107.332 71.9403 106.994 71.3906 106.67 70.8691C106.417 69.8825 107.289 69.3328 108.091 68.6562C108.485 68.3179 108.865 67.9515 109.062 67.5004C109.231 67.0494 109.189 66.5138 108.837 65.8654L108.021 66.0205C108.288 65.2452 107.951 63.427 108.823 63.6807C108.696 63.582 108.063 63.3142 108.514 63.0464L109.119 63.0887C108.893 62.384 108.598 61.6933 108.274 61.0027C108.795 59.4945 110.666 61.4396 110.891 59.1139C110.709 58.2119 109.245 56.6332 108.823 56.9574C108.781 57.2957 108.401 57.8172 107.796 57.8313L107.515 57.0843C105.742 56.9292 103.941 56.45 102.604 58.085L103.631 59.2831L102.745 59.6073V58.6347C101.9 59.1562 102.604 59.5227 103.068 59.9455C102.604 60.0019 102.28 60.1429 102.097 60.3543C102.646 60.7771 103.195 61.2 103.744 61.651C103.026 61.7074 102.421 61.0168 101.943 61.7215C102.646 62.3417 103.575 61.3832 103.955 62.3276C103.068 62.7927 102.435 62.539 103.026 63.2719C102.562 63.3001 102.294 63.1169 102.125 62.8491C102.59 63.4975 102.125 64.3854 103.012 64.8506C102.477 65.0479 102.463 65.5412 102.393 65.95C102.294 66.3447 102.083 66.6406 101.267 66.4292C101.619 66.6829 102.308 67.7119 102.238 68.2475C100.521 66.7957 101.619 70.1644 99.6068 69.3046C101.211 70.5308 99.5224 71.9403 100.071 73.4908C99.9585 73.3639 99.7334 73.1384 99.8601 73.0679C99.4801 73.6881 98.9032 73.674 98.4248 73.9559C99.7756 74.6184 99.5927 75.7601 100.17 76.7185C98.467 76.9018 98.8047 75.4782 97.4258 75.154C98.5515 75.6191 97.8761 77.0286 98.9032 77.2119C97.8057 77.4233 98.256 77.5501 97.0037 77.2823C98.6078 78.269 97.0459 78.0012 97.7494 79.016C96.4409 79.3966 96.0891 78.3536 96.0328 79.5375C95.2871 79.6644 95.1886 78.5368 95.1886 78.5368L95.2871 78.4945ZM79.4434 97.9033V97.8892C79.6404 97.7764 79.7952 97.6636 79.8937 97.6073C79.7952 97.6777 79.6686 97.7623 79.4434 97.9174V97.9033ZM77.4735 98.8758C77.7268 98.7912 78.0364 98.6644 78.3459 98.4952C78.5711 98.7912 78.6695 99.1718 78.4585 99.2564C78.4585 98.9745 77.8957 99.0168 77.4735 98.8758ZM85.3672 103.175C85.0999 103.513 84.8747 103.4 84.72 103.245C84.8747 103.132 85.0436 102.977 85.2546 102.766C85.2546 102.724 85.2406 102.667 85.2265 102.625C85.2969 102.822 85.3531 103.006 85.3672 103.175Z"></path>
<path fill="#E70000" d="M85.2547 101.582C85.2547 101.582 85.2969 101.483 85.3532 101.427C85.2406 101.385 85.128 101.356 85.0295 101.342C85.0436 101.469 85.0718 101.596 85.0858 101.709C85.1421 101.666 85.1984 101.624 85.2547 101.582Z"></path>
<path fill="#E70000" d="M87.8577 15.8284L87.8296 15.772C87.8296 15.772 87.8437 15.8847 87.8296 15.9552C87.8296 15.8988 87.8577 15.8706 87.8577 15.8143V15.8284Z"></path>
<path fill="#E70000" d="M48.3612 99.8623L48.3049 100.13L48.5301 99.9469L48.3612 99.8623Z"></path>
<path fill="#E70000" d="M94.6258 27.2173C94.5695 27.3019 94.5132 27.4005 94.5132 27.5274C94.5695 27.471 94.5976 27.3582 94.6258 27.2173Z"></path>
<path fill="#E70000" d="M97.5103 31.6709L97.5665 32.5166C97.5806 32.1219 97.5525 31.8682 97.5103 31.6709Z"></path>
<path fill="#E70000" d="M99.1003 35.4202C99.2832 35.378 99.4239 35.3216 99.5364 35.2793L99.0862 35.4202H99.1003Z"></path>
<path fill="#E70000" d="M45.2094 13.9116C45.2094 13.9116 45.1109 13.9539 45.0828 13.9962C44.8013 14.2922 45.0124 14.1371 45.2094 13.9116Z"></path>
<path fill="#E70000" d="M63.7545 9.78174C63.5294 9.95088 63.3042 10.1059 63.0791 10.1905C63.4027 10.3314 63.6701 10.3878 63.7545 9.78174Z"></path>
<path fill="#E70000" d="M28.4653 25.1591C28.4653 25.1591 28.4653 25.1591 28.4653 25.145L28.3809 25.2296L28.4794 25.1591H28.4653Z"></path>
<path fill="#E70000" d="M62.1926 10.1342C62.5163 10.3597 62.8117 10.3315 63.0932 10.1905C62.8258 10.106 62.5022 9.97912 62.1926 10.1342Z"></path>
<path fill="#E70000" d="M103.645 52.0244V52.2217C103.645 52.2217 103.758 52.2217 103.8 52.2217L103.645 52.0244Z"></path>
<path fill="#E70000" d="M103.8 52.2217L103.941 52.419C103.941 52.3203 103.926 52.2358 103.8 52.2217Z"></path>
<path fill="#E70000" d="M104.236 52.8418L103.941 52.4189C103.941 52.574 103.926 52.7713 104.236 52.8418Z"></path>
<path fill="#E70000" d="M103.251 46.7246L102.857 46.7528C102.942 46.7669 103.068 46.7528 103.251 46.7246Z"></path>
<path fill="#E70000" d="M102.744 45.1879C102.744 45.5826 102.168 46.3155 102.547 46.7666L102.857 46.7384C102.224 46.6397 103.476 45.3712 102.744 45.1738V45.1879Z"></path>
<path fill="#E70000" d="M105.066 36.9146C105.165 37.4079 105.221 37.9294 105.305 38.4227C105.601 38.0281 106.009 37.4924 106.333 38.0985C106.825 35.8433 105.615 38.8033 105.066 36.9146Z"></path>
<path fill="#E70000" d="M103.589 32.4606C104.109 33.0949 104.124 32.1646 104.349 32.0941C103.772 31.8122 103.617 31.7558 103.589 32.4606Z"></path>
<path fill="#E70000" d="M79.2605 9.85199L79.7389 8.99219C79.1057 8.85124 79.5841 9.34457 79.2605 9.85199Z"></path>
<path fill="#E70000" d="M71.7468 12.4315C71.8594 12.6711 71.986 12.9107 72.0845 13.1644L72.6051 12.4033C72.3237 12.4033 72.0423 12.4033 71.7468 12.4315Z"></path>
<path fill="#E70000" d="M69.9316 4.74967L70.2411 4.6792L69.1155 4.76377L69.9316 4.74967Z"></path>
<path fill="#E70000" d="M17.3213 23.1717L18.3766 23.7919C18.5032 23.3408 17.5183 22.3824 17.3213 23.1717Z"></path>
<path fill="#E70000" d="M7.65464 46.0059C6.97924 46.1327 6.48677 46.767 7.00738 47.3026C7.17623 46.767 7.71092 46.3019 7.65464 46.0059Z"></path>
<path fill="#E70000" d="M39.6937 107.361L39.0605 107.558L40.1018 107.586L39.6937 107.361Z"></path>
<path fill="white" d="M21.1344 35.8712C20.9655 35.7867 20.8811 35.5893 20.8811 35.2933C20.9515 34.9973 21.0077 34.7859 21.064 34.645C21.1062 34.504 21.1907 34.3631 21.3173 34.208C21.5987 33.8697 21.9645 33.5597 22.4289 33.2637C22.8651 32.9959 23.3576 32.7421 23.9204 32.5025C24.4691 32.2911 25.032 32.0938 25.5807 31.9246C26.1717 31.7555 26.6782 31.6427 27.1004 31.5723C27.1426 31.5582 27.1989 31.5441 27.2833 31.5159C27.3677 31.4877 27.4521 31.4877 27.5366 31.4877C27.9305 31.4877 28.1275 31.6709 28.1275 32.0233C28.1275 32.1924 28.0853 32.3616 28.015 32.5307C27.9024 32.8408 27.6351 33.0945 27.2411 33.32C27.1989 33.7288 27.1426 34.4053 27.0863 35.3356C27.0159 36.2659 26.9878 37.2525 26.9878 38.2956C26.9878 39.6487 27.0722 40.8045 27.2411 41.7347C27.3114 42.4113 27.5647 43.0878 27.9868 43.7644C28.4089 44.441 28.7466 44.8356 28.9718 44.9484C29.0703 44.9766 29.1547 45.0048 29.225 45.0048C29.5627 45.0048 29.8864 44.8779 30.21 44.6242C30.4914 44.4128 30.7306 44.1309 30.9417 43.7644C31.1527 43.412 31.3216 43.0174 31.4482 42.5663C31.5749 42.1294 31.6874 41.6924 31.7718 41.2696C31.8422 40.8608 31.8985 40.4803 31.9266 40.1279C31.9548 39.5218 32.0533 39.2117 32.2502 39.2117C32.3065 39.2117 32.3769 39.2258 32.5035 39.2681C32.6161 39.3104 32.7005 39.3386 32.7568 39.3527C33.4322 39.7051 34.1779 40.2548 34.994 41.0441C35.8101 41.8334 36.5137 42.6086 37.1046 43.3979C37.1609 43.4825 37.2313 43.5248 37.3298 43.5248C37.4283 43.5248 37.5408 43.4684 37.6534 43.3556C37.766 43.2429 37.8645 43.116 37.9348 42.9892C38.3429 42.6086 38.5961 42.214 38.7087 41.8052C38.8213 41.3964 38.9338 40.8326 39.0464 40.142C39.2153 38.6338 39.2997 37.323 39.2997 36.2095C39.2997 35.3215 39.2715 34.6591 39.2012 34.208C39.1308 33.757 39.0886 33.461 39.0464 33.3059C38.5821 33.0663 38.3147 32.7562 38.2444 32.3898C38.2162 32.3193 38.1881 32.2206 38.1459 32.0797C38.1037 31.9387 38.0896 31.7978 38.0896 31.6568C38.0896 31.3186 38.2303 31.1494 38.5399 31.1494C38.6806 31.1494 39.0464 31.1635 39.5952 31.2058C40.0173 31.2622 40.4816 31.3186 40.9741 31.3749C41.4666 31.4595 41.9168 31.5864 42.353 31.7273C42.7751 31.8964 43.1269 32.1079 43.4083 32.3616C43.6757 32.6153 43.8023 32.9254 43.8023 33.3059C43.8023 33.9543 43.746 34.8 43.6335 35.843C43.5209 36.8861 43.3661 37.915 43.1973 38.9298C43.0143 39.9447 42.8596 40.7058 42.7048 41.1991C42.6907 41.2837 42.5641 41.7911 42.339 42.7214C42.1138 43.6375 41.8605 44.6383 41.5791 45.7095C41.2977 46.7807 41.0867 47.5982 40.9319 48.1761C40.7771 48.754 40.6505 49.191 40.566 49.501C40.2846 50.4454 39.961 51.277 39.6233 51.9959C39.2715 52.7147 38.8916 53.3067 38.4836 53.7436C38.0474 54.1806 37.583 54.392 37.1046 54.392C36.8936 54.392 36.7669 54.3215 36.7247 54.1665C36.7529 53.941 36.7669 53.5463 36.7669 52.9684C36.7388 52.4187 36.6544 51.8126 36.5418 51.1502C36.4152 50.5018 36.2604 49.8534 36.0634 49.1769C35.8383 48.5144 35.5569 47.9224 35.2192 47.3868C34.8674 46.8371 34.4593 46.4002 33.9809 46.0619C33.8684 45.9914 33.7277 45.8786 33.5307 45.7377C33.3337 45.5967 33.1648 45.4981 32.996 45.4276C32.8412 45.3571 32.6724 45.3289 32.4894 45.3289C32.3487 45.3289 32.1236 45.6249 31.8141 46.2028C31.7437 46.3438 31.5467 46.7666 31.1949 47.4714C30.8572 48.1761 30.4351 49.05 29.9426 50.093C29.4502 51.1361 29.0843 51.9113 28.8311 52.4328C28.5778 52.9543 28.3808 53.3913 28.226 53.7577C27.9727 54.1947 27.7898 54.4061 27.6773 54.4061C27.1426 54.4061 26.6923 54.237 26.3405 53.8987C25.9747 53.5745 25.6511 53.1516 25.3978 52.616C25.2852 52.4046 25.0883 51.7985 24.7928 50.7837C24.4973 49.7688 24.3003 49.0923 24.2159 48.7399C23.9907 47.8097 23.7515 46.8935 23.5264 45.9773C23.3013 45.0752 23.0761 44.0604 22.851 42.9751C22.6259 41.8757 22.443 40.7622 22.3163 39.6205C22.1756 38.4788 22.1053 37.3935 22.1053 36.3786C22.049 36.3645 21.8801 36.2659 21.5987 36.1108C21.3173 35.9417 21.1625 35.8571 21.1203 35.8289L21.1344 35.8712Z"></path>
<path fill="white" d="M94.3725 54.5472C93.9082 54.1948 93.3735 53.7156 92.7825 53.1236C92.2338 52.5739 91.9523 52.2497 91.4317 51.5591C90.897 50.9107 90.4468 50.2623 89.9684 49.5012C89.49 48.7542 89.1382 47.8944 88.7864 47.1474C88.4206 46.3862 88.1251 45.6392 87.914 44.9063C87.703 44.1592 87.6045 43.4545 87.6045 42.7779C87.6045 42.2846 87.6326 41.8336 87.6748 41.4107C87.8578 41.3825 88.0829 41.312 88.3221 41.1993C88.5613 41.0865 90.0106 40.6355 90.7845 39.8039C93.4438 36.9003 94.0489 33.0242 94.0489 32.3195C94.0489 31.9389 94.0207 31.6006 93.9785 31.2905C93.0076 31.5442 91.9946 31.6852 90.9533 31.6852C90.4608 31.6852 89.9684 31.6429 89.4759 31.5865C89.4759 31.6147 89.4759 31.6429 89.4759 31.6711C89.4759 31.9953 88.5894 36.3083 86.2396 38.3521C85.3954 39.085 84.6215 39.4374 83.8335 39.9307C83.0174 40.41 82.2295 40.7905 81.343 41.016C80.9631 41.1288 80.3721 41.3966 80.0344 41.4812C79.6967 41.5798 79.6264 41.608 79.2465 41.608V34.6733C79.5701 34.5887 79.7952 34.3773 79.95 34.039C80.1048 33.7149 80.2174 33.3625 80.2877 32.9819C80.344 32.6295 80.3581 32.2772 80.3581 31.8966C80.3862 31.7698 80.4144 31.6852 80.4144 31.6711C80.4144 31.4315 80.1892 31.3187 79.7671 31.3187C79.5279 31.3187 79.0354 31.3751 78.2897 31.4738C77.558 31.5865 76.8685 31.6993 76.2213 31.8261C75.574 31.953 74.9831 32.108 74.4484 32.2772C73.9137 32.4463 73.576 32.6155 73.4353 32.7846C73.0694 32.9819 72.8724 33.2074 72.8724 33.4611C72.8724 33.6867 72.9287 33.8699 73.0554 34.039C73.182 34.1941 73.3227 34.3491 73.4775 34.4619C73.6323 34.5887 73.7167 34.6592 73.7167 34.6733V42.4396C73.5338 42.5101 73.3368 42.6652 73.1257 42.9189C72.9147 43.1726 72.8162 43.4686 72.8162 43.8068C72.8162 44.4975 73.2524 44.9485 74.1247 45.16L74.0966 54.2512C74.1247 54.4485 74.3077 54.6882 74.6454 54.9982C74.9831 55.2942 75.377 55.4775 75.8414 55.5479C76.6012 55.5479 77.0796 55.5057 77.3047 55.4211C77.6706 55.3506 77.966 55.2379 78.1771 55.0687C78.3882 54.8996 78.5429 54.7163 78.6414 54.5049C78.7399 54.3076 78.8103 54.1385 78.8525 54.0257V44.8781C79.5842 44.7512 79.3731 44.7653 80.3299 44.5257C81.2867 44.2861 81.934 43.9055 82.1451 43.7928C82.5812 44.4552 83.1159 45.3573 83.7632 46.4708C84.2557 47.3588 84.7622 48.2468 85.2969 49.1206C85.8456 50.0086 86.3381 50.7275 86.9572 51.545C87.5623 52.3484 88.0266 52.9263 88.7864 53.5606C89.5462 54.1807 90.3061 54.7022 91.2488 55.0546C92.2338 55.4352 93.2891 55.6325 94.4288 55.6325C94.5695 55.5339 94.6399 55.3929 94.6399 55.1956C94.6399 55.0546 94.6117 54.9278 94.5554 54.815C94.4991 54.7022 94.4569 54.6177 94.4288 54.5613L94.3725 54.5472Z"></path>
<path fill="#231F20" d="M90.5733 81.5106C90.1089 81.1582 89.5743 80.679 88.9833 80.087C88.4345 79.5373 88.1531 79.2272 87.6325 78.5224C87.0978 77.8741 86.6475 77.2257 86.1832 76.4646C85.6907 75.7176 85.353 74.8578 85.0013 74.1107C84.6354 73.3496 84.3399 72.6026 84.1289 71.8696C83.9178 71.1226 83.8193 70.4178 83.8193 69.7413C83.8193 69.248 83.8475 68.7969 83.8897 68.3741C84.0726 68.3459 84.2977 68.2754 84.5369 68.1627C84.7761 68.0499 86.2254 67.5989 86.9993 66.7673C89.6587 63.8637 90.2637 59.9876 90.2637 59.2828C90.2637 58.9023 90.2356 58.564 90.1934 58.2539C89.2225 58.5076 88.2094 58.6486 87.1682 58.6486C86.6757 58.6486 86.1832 58.6063 85.6907 58.5499C85.6907 58.5781 85.6907 58.6063 85.6907 58.6345C85.6907 58.9586 84.8043 63.2717 82.4545 65.3155C81.6102 66.0484 80.8363 66.4008 80.0484 66.8941C79.2323 67.3733 78.4443 67.7539 77.5438 67.9794C77.1639 68.0922 76.5729 68.36 76.2352 68.4446C75.8975 68.5432 75.8272 68.5714 75.4473 68.5714V61.6367C75.7709 61.5521 76.0101 61.3407 76.1508 61.0024C76.3056 60.6782 76.4181 60.3259 76.4885 59.9453C76.5448 59.5929 76.5588 59.2405 76.5588 58.86C76.587 58.7331 76.6151 58.6486 76.6151 58.6345C76.6151 58.3949 76.39 58.2821 75.9679 58.2821C75.7146 58.2821 75.2362 58.3385 74.4904 58.4371C73.7588 58.5499 73.0693 58.6627 72.422 58.7895C71.7748 58.9164 71.1838 59.0714 70.6491 59.2405C70.1144 59.4097 69.7768 59.5788 69.636 59.7339C69.2702 59.9312 69.0873 60.1567 69.0873 60.4104C69.0873 60.636 69.1436 60.8192 69.2702 60.9883C69.3968 61.1434 69.5375 61.2984 69.6923 61.4112C69.8471 61.538 69.9315 61.6085 69.9315 61.6226V69.3889C69.7486 69.4594 69.5516 69.6144 69.3406 69.8681C69.1295 70.1219 69.031 70.4179 69.031 70.7561C69.031 71.4468 69.4672 71.8978 70.3396 72.1092L70.3114 81.2005C70.3396 81.3978 70.5225 81.6374 70.8602 81.9475C71.1979 82.2435 71.5919 82.4268 72.0562 82.4831C72.816 82.4831 73.2944 82.4408 73.5196 82.3563C73.8854 82.2858 74.1809 82.173 74.3919 82.0039C74.603 81.8348 74.7578 81.6515 74.8422 81.4401C74.9407 81.2428 75.0111 81.0736 75.0533 80.9609V71.8133C75.7849 71.6864 75.5598 71.7005 76.5307 71.4609C77.4875 71.2213 78.1348 70.8407 78.3458 70.7279C78.782 71.3904 79.3167 72.2925 79.964 73.406C80.4564 74.294 80.963 75.1819 81.4977 76.0558C82.0464 76.9438 82.5248 77.6627 83.158 78.4802C83.763 79.2836 84.2274 79.8615 84.9872 80.4957C85.747 81.1159 86.5068 81.6374 87.4496 81.9898C88.4345 82.3845 89.4898 82.5677 90.6296 82.5677C90.7703 82.469 90.8406 82.3281 90.8406 82.1308C90.8406 81.9898 90.8125 81.863 90.7562 81.7502C90.6999 81.6374 90.6577 81.5529 90.6296 81.4965L90.5733 81.5106Z"></path>
<path fill="#231F20" d="M37.372 81.2993C36.9358 81.553 36.0212 81.6799 34.6423 81.6799C33.9387 81.6799 33.2915 81.6376 32.7146 81.5671C32.1377 81.4967 31.7859 81.398 31.6593 81.2993C31.5326 81.1302 31.4623 80.947 31.4623 80.7496C31.4623 80.2986 31.8563 79.9603 32.6442 79.7348V63.8075C30.7165 63.2578 29.1969 62.99 28.1134 62.99C26.5516 62.99 25.5104 63.4974 25.0038 64.5263C25.0038 64.3995 25.0038 64.3008 25.0038 64.2303C25.0038 64.1599 25.0038 64.0753 24.9897 63.9907C24.9897 63.2155 25.0601 62.4967 25.2008 61.8342C25.3415 61.1717 25.4822 60.6502 25.6229 60.2837C25.7355 59.9878 25.9606 59.6918 26.2983 59.3817C26.6501 59.0716 26.9174 58.8743 27.1426 58.8038C27.6773 58.395 28.8733 58.1836 30.7869 58.1836C31.4623 58.1836 32.1095 58.2118 32.7286 58.2682C33.3478 58.3245 33.9387 58.395 34.4875 58.5078C35.0362 58.6064 35.4865 58.7192 35.8242 58.832C36.0212 58.9024 36.2463 58.987 36.4996 59.0716C36.7529 59.1702 37.1468 59.283 37.6815 59.424C38.2162 59.5649 38.7791 59.6918 39.37 59.7763C39.961 59.8609 40.5801 59.9173 41.2414 59.9173C42.1138 59.9173 42.944 59.8186 43.7038 59.6354C44.4073 59.4803 45.1109 59.1561 45.8426 58.6487C45.8426 59.6777 45.7581 60.6643 45.5893 61.6369C45.4204 62.6094 45.0687 63.3987 44.534 64.0048C43.6194 64.7377 42.2967 65.1042 40.5942 65.1042C39.8625 65.1042 39.0605 65.0337 38.2022 64.8928V78.1702C38.3569 78.283 38.5399 78.438 38.7509 78.6072C38.962 78.7904 39.0605 79.0441 39.0605 79.3683C39.0605 79.4529 39.0323 79.5938 38.976 79.763C38.976 80.0026 38.7791 80.3127 38.3851 80.7073C37.9911 81.102 37.6534 81.2993 37.3861 81.3275L37.372 81.2993Z"></path>
<path fill="#231F20" d="M46.4194 69.9952C46.4194 68.4871 46.6727 67.0212 47.1652 65.6258C47.6717 64.2304 48.3893 62.99 49.3039 61.9329C50.2185 60.8758 51.316 60.016 52.5965 59.3535C53.8488 58.7334 55.2558 58.4092 56.7896 58.4092C58.3233 58.4092 59.7303 58.7193 61.0108 59.3535C62.2771 60.016 63.3746 60.8758 64.2892 61.9329C65.2038 62.99 65.9074 64.2304 66.4139 65.6258C66.9205 67.0212 67.1737 68.4871 67.1737 69.9952C67.1737 71.5034 66.9205 72.9975 66.4139 74.3929C65.9074 75.7883 65.2038 77.0286 64.3033 78.1139C63.3887 79.171 62.2912 80.0308 61.0108 80.6651C59.7303 81.3135 58.3233 81.6236 56.8036 81.6236C55.284 81.6236 53.8628 81.2994 52.6105 80.6651C51.3301 80.0167 50.2326 79.171 49.318 78.1139C48.4034 77.0286 47.6858 75.8024 47.1652 74.3929C46.6586 72.9975 46.4194 71.5316 46.4194 69.9952ZM51.0346 68.3743C51.0346 69.3469 51.1472 70.2489 51.3583 71.0805C51.5834 71.9262 51.9211 72.631 52.3995 73.223C52.8498 73.8432 53.4548 74.3224 54.2005 74.6466C54.9181 74.9848 55.7905 75.154 56.8036 75.154C57.8167 75.154 58.6891 74.9848 59.4208 74.6466C60.1525 74.3224 60.7575 73.8573 61.2218 73.223C61.6721 72.631 62.0098 71.9121 62.2349 71.0805C62.446 70.263 62.5585 69.361 62.5585 68.3743C62.5585 67.3877 62.446 66.4856 62.2349 65.654C62.0098 64.8224 61.6862 64.0894 61.2359 63.4693C60.7716 62.8773 60.1665 62.4122 59.4349 62.0739C58.7172 61.7497 57.8449 61.5946 56.8177 61.5946C55.7905 61.5946 54.9463 61.7497 54.2146 62.0739C53.4689 62.4122 52.8638 62.8773 52.4136 63.4693C51.9492 64.0894 51.5975 64.8083 51.3723 65.6399C51.1613 66.4856 51.0487 67.3877 51.0487 68.3743H51.0346Z"></path>
<path fill="white" d="M46.7854 43.5527C46.7854 41.9318 47.0527 40.3814 47.5874 38.8873C48.1362 37.3933 48.896 36.0824 49.8669 34.9548C50.8518 33.8272 52.0197 32.9111 53.3846 32.2063C54.7213 31.5438 56.2128 31.2056 57.8591 31.2056C59.5053 31.2056 60.9828 31.5438 62.3476 32.2063C63.7125 32.9111 64.8663 33.8272 65.8372 34.9548C66.808 36.0965 67.5538 37.3933 68.1025 38.8873C68.6372 40.3814 68.9046 41.9318 68.9046 43.5527C68.9046 45.1737 68.6372 46.7523 68.1025 48.2464C67.5679 49.7404 66.808 51.0654 65.8512 52.2071C64.8803 53.3347 63.7125 54.2508 62.3476 54.9274C60.9828 55.618 59.4913 55.9563 57.8591 55.9563C56.2269 55.9563 54.7354 55.618 53.3846 54.9274C52.0197 54.2367 50.8518 53.3347 49.881 52.2071C48.896 51.0513 48.1362 49.7404 47.5874 48.2464C47.0527 46.7523 46.7854 45.1878 46.7854 43.5527ZM51.7102 41.8332C51.7102 42.8762 51.8227 43.8346 52.0479 44.7226C52.2871 45.6106 52.6529 46.3858 53.1594 47.0201C53.6378 47.6826 54.2851 48.19 55.0731 48.5283C55.8469 48.8947 56.7756 49.0639 57.845 49.0639C58.9144 49.0639 59.8571 48.8806 60.631 48.5283C61.4049 48.19 62.0521 47.6826 62.5446 47.0201C63.023 46.3858 63.3889 45.6247 63.6281 44.7226C63.8532 43.8487 63.9657 42.8762 63.9657 41.8332C63.9657 40.7901 63.8532 39.8176 63.614 38.9296C63.3748 38.0416 63.023 37.2664 62.5446 36.6039C62.0521 35.9697 61.4049 35.4763 60.631 35.1099C59.8571 34.7716 58.9284 34.6025 57.845 34.6025C56.7615 34.6025 55.8469 34.7716 55.0731 35.1099C54.271 35.4763 53.6378 35.9697 53.1594 36.6039C52.6529 37.2664 52.2871 38.0416 52.0479 38.9296C51.8227 39.8176 51.7102 40.7901 51.7102 41.8332Z"></path>
<path fill="#231F20" d="M95.1757 56.7099V53.565H96.7695C96.8973 53.565 97.0365 53.6019 97.1871 53.6758C97.3377 53.7468 97.4655 53.8576 97.5706 54.0082C97.6786 54.1559 97.7326 54.3434 97.7326 54.5707C97.7326 54.8008 97.6772 54.9968 97.5664 55.1587C97.4556 55.3178 97.3206 55.4386 97.1615 55.521C97.0053 55.6033 96.8576 55.6445 96.7184 55.6445H95.5678V55.1332H96.5053C96.599 55.1332 96.6999 55.0863 96.8078 54.9925C96.9186 54.8988 96.974 54.7582 96.974 54.5707C96.974 54.3775 96.9186 54.2468 96.8078 54.1786C96.6999 54.1104 96.6047 54.0763 96.5223 54.0763H95.8661V56.7099H95.1757ZM97.0763 55.2269L97.8604 56.7099H97.1019L96.3348 55.2269H97.0763ZM96.3689 58.5849C95.8973 58.5849 95.4556 58.4968 95.0436 58.3207C94.6317 58.1445 94.2695 57.9002 93.957 57.5877C93.6445 57.2752 93.4002 56.913 93.224 56.5011C93.0479 56.0891 92.9598 55.6474 92.9598 55.1758C92.9598 54.7042 93.0479 54.2624 93.224 53.8505C93.4002 53.4386 93.6445 53.0763 93.957 52.7638C94.2695 52.4513 94.6317 52.207 95.0436 52.0309C95.4556 51.8548 95.8973 51.7667 96.3689 51.7667C96.8405 51.7667 97.2823 51.8548 97.6942 52.0309C98.1061 52.207 98.4684 52.4513 98.7809 52.7638C99.0934 53.0763 99.3377 53.4386 99.5138 53.8505C99.6899 54.2624 99.778 54.7042 99.778 55.1758C99.778 55.6474 99.6899 56.0891 99.5138 56.5011C99.3377 56.913 99.0934 57.2752 98.7809 57.5877C98.4684 57.9002 98.1061 58.1445 97.6942 58.3207C97.2823 58.4968 96.8405 58.5849 96.3689 58.5849ZM96.3689 57.7667C96.8462 57.7667 97.2809 57.6502 97.6729 57.4173C98.0649 57.1843 98.3774 56.8718 98.6104 56.4798C98.8434 56.0877 98.9598 55.6531 98.9598 55.1758C98.9598 54.6985 98.8434 54.2638 98.6104 53.8718C98.3774 53.4798 98.0649 53.1673 97.6729 52.9343C97.2809 52.7013 96.8462 52.5849 96.3689 52.5849C95.8916 52.5849 95.457 52.7013 95.0649 52.9343C94.6729 53.1673 94.3604 53.4798 94.1274 53.8718C93.8945 54.2638 93.778 54.6985 93.778 55.1758C93.778 55.6531 93.8945 56.0877 94.1274 56.4798C94.3604 56.8718 94.6729 57.1843 95.0649 57.4173C95.457 57.6502 95.8916 57.7667 96.3689 57.7667Z"></path>
</g>
<defs>
<clipPath id="clip0_257_290">
<rect fill="white" height="152" width="115"></rect>
</clipPath>
</defs>
</svg>
